G75*
%MOIN*%
%OFA0B0*%
%FSLAX25Y25*%
%IPPOS*%
%LPD*%
%AMOC8*
5,1,8,0,0,1.08239X$1,22.5*
%
%ADD10OC8,0.06300*%
%ADD11C,0.06300*%
%ADD12C,0.06600*%
%ADD13C,0.05200*%
%ADD14OC8,0.05200*%
%ADD15R,0.04362X0.04362*%
%ADD16C,0.04362*%
%ADD17C,0.05600*%
%ADD18C,0.03200*%
%ADD19C,0.01200*%
%ADD20C,0.02978*%
%ADD21C,0.00600*%
%ADD22C,0.00800*%
%ADD23C,0.01600*%
D10*
X0059600Y0151600D03*
D11*
X0073600Y0151600D03*
D12*
X0071600Y0116600D03*
X0071600Y0081600D03*
X0031600Y0081600D03*
X0031600Y0116600D03*
D13*
X0159000Y0131600D02*
X0164200Y0131600D01*
X0164200Y0141600D02*
X0159000Y0141600D01*
X0159000Y0151600D02*
X0164200Y0151600D01*
X0164200Y0161600D02*
X0159000Y0161600D01*
X0159000Y0171600D02*
X0164200Y0171600D01*
X0164200Y0181600D02*
X0159000Y0181600D01*
X0159000Y0191600D02*
X0164200Y0191600D01*
X0189000Y0191600D02*
X0194200Y0191600D01*
X0194200Y0181600D02*
X0189000Y0181600D01*
X0189000Y0171600D02*
X0194200Y0171600D01*
X0194200Y0161600D02*
X0189000Y0161600D01*
X0189000Y0151600D02*
X0194200Y0151600D01*
X0194200Y0141600D02*
X0189000Y0141600D01*
X0189000Y0131600D02*
X0194200Y0131600D01*
D14*
X0126600Y0081600D03*
X0126600Y0064100D03*
X0126600Y0049100D03*
X0086600Y0049100D03*
X0071600Y0049100D03*
X0071600Y0064100D03*
X0086600Y0064100D03*
X0086600Y0081600D03*
X0071600Y0129100D03*
X0031600Y0129100D03*
X0056600Y0176600D03*
X0061600Y0184100D03*
X0066600Y0176600D03*
X0031600Y0064100D03*
X0031600Y0049100D03*
D15*
X0041600Y0024100D03*
X0051600Y0024100D03*
X0061600Y0024100D03*
X0071600Y0024100D03*
X0081600Y0024100D03*
X0091600Y0024100D03*
X0101600Y0024100D03*
X0111600Y0024100D03*
X0121600Y0024100D03*
X0131600Y0024100D03*
X0141600Y0024100D03*
X0151600Y0024100D03*
X0161600Y0024100D03*
X0171600Y0024100D03*
X0181600Y0024100D03*
X0191600Y0024100D03*
X0201600Y0024100D03*
X0211600Y0024100D03*
X0211600Y0114100D03*
X0211600Y0124100D03*
X0211600Y0134100D03*
X0211600Y0144100D03*
X0211600Y0154100D03*
X0211600Y0164100D03*
X0211600Y0174100D03*
X0211600Y0184100D03*
X0211600Y0194100D03*
X0211600Y0204100D03*
X0091600Y0204100D03*
X0091600Y0194100D03*
X0091600Y0184100D03*
X0091600Y0174100D03*
X0091600Y0164100D03*
X0091600Y0154100D03*
X0091600Y0144100D03*
X0091600Y0134100D03*
X0091600Y0124100D03*
X0091600Y0114100D03*
X0039100Y0161600D03*
X0039100Y0171600D03*
X0039100Y0181600D03*
X0039100Y0191600D03*
X0039100Y0201600D03*
X0029100Y0201600D03*
X0029100Y0191600D03*
X0029100Y0181600D03*
X0029100Y0171600D03*
X0029100Y0161600D03*
D16*
X0031600Y0098781D02*
X0031600Y0094419D01*
X0041600Y0094419D02*
X0041600Y0098781D01*
X0051600Y0098781D02*
X0051600Y0094419D01*
X0061600Y0094419D02*
X0061600Y0098781D01*
X0071600Y0098781D02*
X0071600Y0094419D01*
X0081600Y0094419D02*
X0081600Y0098781D01*
X0091600Y0098781D02*
X0091600Y0094419D01*
X0101600Y0094419D02*
X0101600Y0098781D01*
X0111600Y0098781D02*
X0111600Y0094419D01*
X0121600Y0094419D02*
X0121600Y0098781D01*
X0131600Y0098781D02*
X0131600Y0094419D01*
X0141600Y0094419D02*
X0141600Y0098781D01*
X0151600Y0098781D02*
X0151600Y0094419D01*
X0161600Y0094419D02*
X0161600Y0098781D01*
X0171600Y0098781D02*
X0171600Y0094419D01*
X0171600Y0038781D02*
X0171600Y0034419D01*
X0161600Y0034419D02*
X0161600Y0038781D01*
X0151600Y0038781D02*
X0151600Y0034419D01*
X0141600Y0034419D02*
X0141600Y0038781D01*
X0131600Y0038781D02*
X0131600Y0034419D01*
X0121600Y0034419D02*
X0121600Y0038781D01*
X0111600Y0038781D02*
X0111600Y0034419D01*
X0101600Y0034419D02*
X0101600Y0038781D01*
X0091600Y0038781D02*
X0091600Y0034419D01*
X0081600Y0034419D02*
X0081600Y0038781D01*
X0071600Y0038781D02*
X0071600Y0034419D01*
X0061600Y0034419D02*
X0061600Y0038781D01*
X0051600Y0038781D02*
X0051600Y0034419D01*
X0041600Y0034419D02*
X0041600Y0038781D01*
X0031600Y0038781D02*
X0031600Y0034419D01*
D17*
X0029100Y0143800D02*
X0029100Y0149400D01*
X0039100Y0149400D02*
X0039100Y0143800D01*
X0203800Y0096600D02*
X0209400Y0096600D01*
X0209400Y0086600D02*
X0203800Y0086600D01*
D18*
X0201600Y0106600D02*
X0191600Y0106600D01*
X0191600Y0056600D01*
X0171600Y0036600D01*
X0191600Y0106600D02*
X0086600Y0106600D01*
X0076600Y0116600D01*
X0071600Y0116600D01*
X0076400Y0121400D01*
X0076400Y0146608D01*
X0073600Y0149408D01*
X0073600Y0151600D01*
X0061600Y0153600D02*
X0061600Y0184100D01*
X0041600Y0171600D02*
X0041600Y0166573D01*
X0043481Y0164692D01*
X0043481Y0150981D01*
X0039100Y0146600D01*
X0059600Y0151600D02*
X0061600Y0153600D01*
X0041600Y0171600D02*
X0039100Y0171600D01*
X0201600Y0121600D02*
X0201600Y0106600D01*
X0201600Y0121600D02*
X0209100Y0121600D01*
X0211600Y0124100D01*
D19*
X0026200Y0141043D02*
X0026200Y0021200D01*
X0038441Y0021200D01*
X0038219Y0021422D01*
X0038219Y0026778D01*
X0038922Y0027481D01*
X0039600Y0027481D01*
X0039600Y0031637D01*
X0038734Y0032504D01*
X0038219Y0033746D01*
X0038219Y0039454D01*
X0038734Y0040696D01*
X0039685Y0041647D01*
X0040927Y0042162D01*
X0042273Y0042162D01*
X0043515Y0041647D01*
X0044466Y0040696D01*
X0044981Y0039454D01*
X0044981Y0033746D01*
X0044466Y0032504D01*
X0043600Y0031637D01*
X0043600Y0027481D01*
X0044278Y0027481D01*
X0044981Y0026778D01*
X0044981Y0021422D01*
X0044759Y0021200D01*
X0048441Y0021200D01*
X0048219Y0021422D01*
X0048219Y0026778D01*
X0048922Y0027481D01*
X0049600Y0027481D01*
X0049600Y0031637D01*
X0048734Y0032504D01*
X0048219Y0033746D01*
X0048219Y0039454D01*
X0048734Y0040696D01*
X0049685Y0041647D01*
X0050927Y0042162D01*
X0052273Y0042162D01*
X0053515Y0041647D01*
X0054466Y0040696D01*
X0054981Y0039454D01*
X0054981Y0033746D01*
X0054466Y0032504D01*
X0053600Y0031637D01*
X0053600Y0027481D01*
X0054278Y0027481D01*
X0054981Y0026778D01*
X0054981Y0021422D01*
X0054759Y0021200D01*
X0058441Y0021200D01*
X0058219Y0021422D01*
X0058219Y0026778D01*
X0058922Y0027481D01*
X0059600Y0027481D01*
X0059600Y0031637D01*
X0058734Y0032504D01*
X0058219Y0033746D01*
X0058219Y0039454D01*
X0058734Y0040696D01*
X0059685Y0041647D01*
X0060927Y0042162D01*
X0062273Y0042162D01*
X0063515Y0041647D01*
X0064466Y0040696D01*
X0064981Y0039454D01*
X0064981Y0033746D01*
X0064466Y0032504D01*
X0063600Y0031637D01*
X0063600Y0027481D01*
X0064278Y0027481D01*
X0064981Y0026778D01*
X0064981Y0021422D01*
X0064759Y0021200D01*
X0068441Y0021200D01*
X0068219Y0021422D01*
X0068219Y0026778D01*
X0068922Y0027481D01*
X0069600Y0027481D01*
X0069600Y0031637D01*
X0068734Y0032504D01*
X0068219Y0033746D01*
X0068219Y0039454D01*
X0068734Y0040696D01*
X0069685Y0041647D01*
X0070927Y0042162D01*
X0072273Y0042162D01*
X0073515Y0041647D01*
X0074466Y0040696D01*
X0074981Y0039454D01*
X0074981Y0033746D01*
X0074466Y0032504D01*
X0073600Y0031637D01*
X0073600Y0027481D01*
X0074278Y0027481D01*
X0074981Y0026778D01*
X0074981Y0021422D01*
X0074759Y0021200D01*
X0078441Y0021200D01*
X0078219Y0021422D01*
X0078219Y0026778D01*
X0078922Y0027481D01*
X0079600Y0027481D01*
X0079600Y0031637D01*
X0078734Y0032504D01*
X0078219Y0033746D01*
X0078219Y0039454D01*
X0078734Y0040696D01*
X0079685Y0041647D01*
X0080927Y0042162D01*
X0082273Y0042162D01*
X0083515Y0041647D01*
X0084466Y0040696D01*
X0084981Y0039454D01*
X0084981Y0033746D01*
X0084466Y0032504D01*
X0083600Y0031637D01*
X0083600Y0027481D01*
X0084278Y0027481D01*
X0084981Y0026778D01*
X0084981Y0021422D01*
X0084759Y0021200D01*
X0088441Y0021200D01*
X0088219Y0021422D01*
X0088219Y0026778D01*
X0088922Y0027481D01*
X0089600Y0027481D01*
X0089600Y0031637D01*
X0088734Y0032504D01*
X0088219Y0033746D01*
X0088219Y0039454D01*
X0088734Y0040696D01*
X0089685Y0041647D01*
X0090927Y0042162D01*
X0092273Y0042162D01*
X0093515Y0041647D01*
X0094466Y0040696D01*
X0094981Y0039454D01*
X0094981Y0033746D01*
X0094466Y0032504D01*
X0093600Y0031637D01*
X0093600Y0027481D01*
X0094278Y0027481D01*
X0094981Y0026778D01*
X0094981Y0021422D01*
X0094759Y0021200D01*
X0098441Y0021200D01*
X0098219Y0021422D01*
X0098219Y0026778D01*
X0098922Y0027481D01*
X0099600Y0027481D01*
X0099600Y0031637D01*
X0098734Y0032504D01*
X0098219Y0033746D01*
X0098219Y0039454D01*
X0098734Y0040696D01*
X0099685Y0041647D01*
X0100927Y0042162D01*
X0102273Y0042162D01*
X0103515Y0041647D01*
X0104466Y0040696D01*
X0104981Y0039454D01*
X0104981Y0033746D01*
X0104466Y0032504D01*
X0103600Y0031637D01*
X0103600Y0027481D01*
X0104278Y0027481D01*
X0104981Y0026778D01*
X0104981Y0021422D01*
X0104759Y0021200D01*
X0108441Y0021200D01*
X0108219Y0021422D01*
X0108219Y0026778D01*
X0108922Y0027481D01*
X0109600Y0027481D01*
X0109600Y0031637D01*
X0108734Y0032504D01*
X0108219Y0033746D01*
X0108219Y0039454D01*
X0108734Y0040696D01*
X0109685Y0041647D01*
X0110927Y0042162D01*
X0112273Y0042162D01*
X0113515Y0041647D01*
X0114466Y0040696D01*
X0114981Y0039454D01*
X0114981Y0033746D01*
X0114466Y0032504D01*
X0113600Y0031637D01*
X0113600Y0027481D01*
X0114278Y0027481D01*
X0114981Y0026778D01*
X0114981Y0021422D01*
X0114759Y0021200D01*
X0118441Y0021200D01*
X0118219Y0021422D01*
X0118219Y0026778D01*
X0118922Y0027481D01*
X0119600Y0027481D01*
X0119600Y0031637D01*
X0118734Y0032504D01*
X0118219Y0033746D01*
X0118219Y0039454D01*
X0118734Y0040696D01*
X0119685Y0041647D01*
X0120593Y0042024D01*
X0120000Y0042617D01*
X0120000Y0084099D01*
X0114461Y0089638D01*
X0109620Y0089638D01*
X0104981Y0094276D01*
X0104981Y0093746D01*
X0104466Y0092504D01*
X0103515Y0091553D01*
X0102273Y0091038D01*
X0100927Y0091038D01*
X0099685Y0091553D01*
X0098734Y0092504D01*
X0098219Y0093746D01*
X0098219Y0099454D01*
X0098734Y0100696D01*
X0099685Y0101647D01*
X0100927Y0102162D01*
X0102273Y0102162D01*
X0103515Y0101647D01*
X0104466Y0100696D01*
X0104981Y0099454D01*
X0104981Y0098200D01*
X0105583Y0098200D01*
X0108219Y0095564D01*
X0108219Y0099454D01*
X0108734Y0100696D01*
X0109685Y0101647D01*
X0110927Y0102162D01*
X0112273Y0102162D01*
X0113515Y0101647D01*
X0114466Y0100696D01*
X0114981Y0099454D01*
X0114981Y0095340D01*
X0124600Y0085721D01*
X0124600Y0084974D01*
X0125026Y0085400D01*
X0125100Y0085400D01*
X0125100Y0090979D01*
X0124021Y0092058D01*
X0123515Y0091553D01*
X0122273Y0091038D01*
X0120927Y0091038D01*
X0119685Y0091553D01*
X0118734Y0092504D01*
X0118219Y0093746D01*
X0118219Y0099454D01*
X0118734Y0100696D01*
X0119685Y0101647D01*
X0120927Y0102162D01*
X0122273Y0102162D01*
X0123515Y0101647D01*
X0124466Y0100696D01*
X0124981Y0099454D01*
X0124981Y0095340D01*
X0128100Y0092221D01*
X0128100Y0085400D01*
X0128174Y0085400D01*
X0128600Y0084974D01*
X0128600Y0092826D01*
X0128219Y0093746D01*
X0128219Y0099454D01*
X0128734Y0100696D01*
X0129685Y0101647D01*
X0130927Y0102162D01*
X0132273Y0102162D01*
X0133515Y0101647D01*
X0134466Y0100696D01*
X0134981Y0099454D01*
X0134981Y0093746D01*
X0134466Y0092504D01*
X0133515Y0091553D01*
X0132273Y0091038D01*
X0131600Y0091038D01*
X0131600Y0079529D01*
X0130721Y0078650D01*
X0128100Y0076029D01*
X0128100Y0067900D01*
X0128174Y0067900D01*
X0130400Y0065674D01*
X0130400Y0064013D01*
X0131065Y0064289D01*
X0132135Y0064289D01*
X0133123Y0063880D01*
X0133880Y0063123D01*
X0134289Y0062135D01*
X0134289Y0061174D01*
X0139082Y0056381D01*
X0140019Y0055444D01*
X0140019Y0041786D01*
X0140927Y0042162D01*
X0142273Y0042162D01*
X0143515Y0041647D01*
X0144466Y0040696D01*
X0144971Y0039479D01*
X0148399Y0042908D01*
X0149454Y0043962D01*
X0171200Y0043962D01*
X0183803Y0056565D01*
X0183803Y0057243D01*
X0184212Y0058232D01*
X0184968Y0058988D01*
X0185957Y0059397D01*
X0187026Y0059397D01*
X0188015Y0058988D01*
X0188771Y0058232D01*
X0188800Y0058162D01*
X0188800Y0103800D01*
X0086043Y0103800D01*
X0085014Y0104226D01*
X0084226Y0105014D01*
X0075440Y0113800D01*
X0075271Y0113800D01*
X0079721Y0109350D01*
X0080600Y0108471D01*
X0080600Y0102027D01*
X0080927Y0102162D01*
X0082273Y0102162D01*
X0083515Y0101647D01*
X0084466Y0100696D01*
X0084981Y0099454D01*
X0084981Y0093746D01*
X0084466Y0092504D01*
X0083515Y0091553D01*
X0082607Y0091176D01*
X0087221Y0086562D01*
X0087221Y0086562D01*
X0088100Y0085683D01*
X0088100Y0085400D01*
X0088174Y0085400D01*
X0090400Y0083174D01*
X0090400Y0080026D01*
X0088174Y0077800D01*
X0087572Y0077800D01*
X0088100Y0077272D01*
X0088100Y0067900D01*
X0088174Y0067900D01*
X0090400Y0065674D01*
X0090400Y0062526D01*
X0088174Y0060300D01*
X0087572Y0060300D01*
X0088100Y0059772D01*
X0088100Y0052900D01*
X0088174Y0052900D01*
X0090400Y0050674D01*
X0090400Y0050072D01*
X0108528Y0068200D01*
X0109397Y0068200D01*
X0110077Y0068880D01*
X0111065Y0069289D01*
X0112135Y0069289D01*
X0113123Y0068880D01*
X0113880Y0068123D01*
X0114289Y0067135D01*
X0114289Y0066065D01*
X0113880Y0065077D01*
X0113123Y0064320D01*
X0112135Y0063911D01*
X0111065Y0063911D01*
X0110077Y0064320D01*
X0109626Y0064772D01*
X0089691Y0044837D01*
X0088754Y0043900D01*
X0041163Y0043900D01*
X0034981Y0037718D01*
X0034981Y0033746D01*
X0034466Y0032504D01*
X0033515Y0031553D01*
X0032273Y0031038D01*
X0030927Y0031038D01*
X0029685Y0031553D01*
X0028734Y0032504D01*
X0028219Y0033746D01*
X0028219Y0039454D01*
X0028734Y0040696D01*
X0029685Y0041647D01*
X0030927Y0042162D01*
X0032273Y0042162D01*
X0033515Y0041647D01*
X0033950Y0041213D01*
X0038900Y0046163D01*
X0039837Y0047100D01*
X0068226Y0047100D01*
X0067800Y0047526D01*
X0067800Y0050674D01*
X0070026Y0052900D01*
X0073174Y0052900D01*
X0075400Y0050674D01*
X0075400Y0047526D01*
X0074974Y0047100D01*
X0083226Y0047100D01*
X0082800Y0047526D01*
X0082800Y0050674D01*
X0085026Y0052900D01*
X0085100Y0052900D01*
X0085100Y0058529D01*
X0081600Y0062029D01*
X0081600Y0066171D01*
X0083850Y0068421D01*
X0083850Y0074729D01*
X0080979Y0077600D01*
X0080100Y0078479D01*
X0080100Y0086046D01*
X0075498Y0090648D01*
X0074619Y0091527D01*
X0074619Y0092872D01*
X0074466Y0092504D01*
X0073515Y0091553D01*
X0072273Y0091038D01*
X0070927Y0091038D01*
X0069685Y0091553D01*
X0068734Y0092504D01*
X0068219Y0093746D01*
X0068219Y0099454D01*
X0068734Y0100696D01*
X0069685Y0101647D01*
X0070927Y0102162D01*
X0072273Y0102162D01*
X0073515Y0101647D01*
X0074466Y0100696D01*
X0074619Y0100328D01*
X0074619Y0101673D01*
X0075150Y0102204D01*
X0075150Y0106285D01*
X0072935Y0108500D01*
X0068245Y0108500D01*
X0041645Y0135100D01*
X0040979Y0135100D01*
X0038679Y0137400D01*
X0036449Y0137400D01*
X0035570Y0138279D01*
X0033579Y0140270D01*
X0032700Y0141149D01*
X0032700Y0142039D01*
X0032491Y0141534D01*
X0031366Y0140409D01*
X0029896Y0139800D01*
X0028304Y0139800D01*
X0026834Y0140409D01*
X0026200Y0141043D01*
X0026200Y0140047D02*
X0027709Y0140047D01*
X0026200Y0138848D02*
X0035001Y0138848D01*
X0036199Y0137650D02*
X0026200Y0137650D01*
X0026200Y0136451D02*
X0039628Y0136451D01*
X0040826Y0135253D02*
X0026200Y0135253D01*
X0026200Y0134054D02*
X0042691Y0134054D01*
X0043889Y0132856D02*
X0033218Y0132856D01*
X0033174Y0132900D02*
X0030026Y0132900D01*
X0027800Y0130674D01*
X0027800Y0127526D01*
X0030026Y0125300D01*
X0033174Y0125300D01*
X0035400Y0127526D01*
X0035400Y0130674D01*
X0033174Y0132900D01*
X0034417Y0131657D02*
X0045088Y0131657D01*
X0046286Y0130459D02*
X0035400Y0130459D01*
X0035400Y0129260D02*
X0047485Y0129260D01*
X0048683Y0128062D02*
X0035400Y0128062D01*
X0034737Y0126863D02*
X0049882Y0126863D01*
X0051080Y0125665D02*
X0033539Y0125665D01*
X0029661Y0125665D02*
X0026200Y0125665D01*
X0026200Y0126863D02*
X0028463Y0126863D01*
X0027800Y0128062D02*
X0026200Y0128062D01*
X0026200Y0129260D02*
X0027800Y0129260D01*
X0027800Y0130459D02*
X0026200Y0130459D01*
X0026200Y0131657D02*
X0028783Y0131657D01*
X0029982Y0132856D02*
X0026200Y0132856D01*
X0026200Y0124466D02*
X0052279Y0124466D01*
X0053477Y0123268D02*
X0026200Y0123268D01*
X0026200Y0122069D02*
X0054676Y0122069D01*
X0055874Y0120870D02*
X0033049Y0120870D01*
X0032495Y0121100D02*
X0030705Y0121100D01*
X0029051Y0120415D01*
X0027785Y0119149D01*
X0027100Y0117495D01*
X0027100Y0115705D01*
X0027785Y0114051D01*
X0029051Y0112785D01*
X0030705Y0112100D01*
X0032495Y0112100D01*
X0034149Y0112785D01*
X0035415Y0114051D01*
X0036100Y0115705D01*
X0036100Y0117495D01*
X0035415Y0119149D01*
X0034149Y0120415D01*
X0032495Y0121100D01*
X0030151Y0120870D02*
X0026200Y0120870D01*
X0026200Y0119672D02*
X0028308Y0119672D01*
X0027505Y0118473D02*
X0026200Y0118473D01*
X0026200Y0117275D02*
X0027100Y0117275D01*
X0027100Y0116076D02*
X0026200Y0116076D01*
X0026200Y0114878D02*
X0027443Y0114878D01*
X0028157Y0113679D02*
X0026200Y0113679D01*
X0026200Y0112481D02*
X0029785Y0112481D01*
X0033415Y0112481D02*
X0064264Y0112481D01*
X0065462Y0111282D02*
X0026200Y0111282D01*
X0026200Y0110084D02*
X0066661Y0110084D01*
X0067859Y0108885D02*
X0026200Y0108885D01*
X0026200Y0107687D02*
X0073748Y0107687D01*
X0074946Y0106488D02*
X0026200Y0106488D01*
X0026200Y0105290D02*
X0075150Y0105290D01*
X0075150Y0104091D02*
X0026200Y0104091D01*
X0026200Y0102893D02*
X0075150Y0102893D01*
X0074640Y0101694D02*
X0073402Y0101694D01*
X0074549Y0100496D02*
X0074619Y0100496D01*
X0069798Y0101694D02*
X0063402Y0101694D01*
X0063515Y0101647D02*
X0062273Y0102162D01*
X0060927Y0102162D01*
X0059685Y0101647D01*
X0058734Y0100696D01*
X0058219Y0099454D01*
X0058219Y0093746D01*
X0058734Y0092504D01*
X0059685Y0091553D01*
X0060927Y0091038D01*
X0062273Y0091038D01*
X0063515Y0091553D01*
X0064466Y0092504D01*
X0064981Y0093746D01*
X0064981Y0099454D01*
X0064466Y0100696D01*
X0063515Y0101647D01*
X0064549Y0100496D02*
X0068651Y0100496D01*
X0068219Y0099297D02*
X0064981Y0099297D01*
X0064981Y0098099D02*
X0068219Y0098099D01*
X0068219Y0096900D02*
X0064981Y0096900D01*
X0064981Y0095702D02*
X0068219Y0095702D01*
X0068219Y0094503D02*
X0064981Y0094503D01*
X0064798Y0093305D02*
X0068402Y0093305D01*
X0069131Y0092106D02*
X0064069Y0092106D01*
X0059131Y0092106D02*
X0054069Y0092106D01*
X0054466Y0092504D02*
X0054981Y0093746D01*
X0054981Y0099454D01*
X0054466Y0100696D01*
X0053515Y0101647D01*
X0052273Y0102162D01*
X0050927Y0102162D01*
X0049685Y0101647D01*
X0048734Y0100696D01*
X0048219Y0099454D01*
X0048219Y0093746D01*
X0048734Y0092504D01*
X0049685Y0091553D01*
X0050927Y0091038D01*
X0052273Y0091038D01*
X0053515Y0091553D01*
X0054466Y0092504D01*
X0054798Y0093305D02*
X0058402Y0093305D01*
X0058219Y0094503D02*
X0054981Y0094503D01*
X0054981Y0095702D02*
X0058219Y0095702D01*
X0058219Y0096900D02*
X0054981Y0096900D01*
X0054981Y0098099D02*
X0058219Y0098099D01*
X0058219Y0099297D02*
X0054981Y0099297D01*
X0054549Y0100496D02*
X0058651Y0100496D01*
X0059798Y0101694D02*
X0053402Y0101694D01*
X0049798Y0101694D02*
X0043402Y0101694D01*
X0043515Y0101647D02*
X0042273Y0102162D01*
X0040927Y0102162D01*
X0039685Y0101647D01*
X0038734Y0100696D01*
X0038219Y0099454D01*
X0038219Y0093746D01*
X0038734Y0092504D01*
X0039685Y0091553D01*
X0040927Y0091038D01*
X0042273Y0091038D01*
X0043515Y0091553D01*
X0044466Y0092504D01*
X0044981Y0093746D01*
X0044981Y0099454D01*
X0044466Y0100696D01*
X0043515Y0101647D01*
X0044549Y0100496D02*
X0048651Y0100496D01*
X0048219Y0099297D02*
X0044981Y0099297D01*
X0044981Y0098099D02*
X0048219Y0098099D01*
X0048219Y0096900D02*
X0044981Y0096900D01*
X0044981Y0095702D02*
X0048219Y0095702D01*
X0048219Y0094503D02*
X0044981Y0094503D01*
X0044798Y0093305D02*
X0048402Y0093305D01*
X0049131Y0092106D02*
X0044069Y0092106D01*
X0045077Y0088880D02*
X0044320Y0088123D01*
X0043911Y0087135D01*
X0043911Y0086065D01*
X0044320Y0085077D01*
X0044800Y0084597D01*
X0044800Y0079846D01*
X0032854Y0067900D01*
X0030026Y0067900D01*
X0027800Y0065674D01*
X0027800Y0062526D01*
X0030026Y0060300D01*
X0033174Y0060300D01*
X0035400Y0062526D01*
X0035400Y0065354D01*
X0047346Y0077300D01*
X0048400Y0078354D01*
X0048400Y0084597D01*
X0048880Y0085077D01*
X0049289Y0086065D01*
X0049289Y0087135D01*
X0048880Y0088123D01*
X0048123Y0088880D01*
X0047135Y0089289D01*
X0046065Y0089289D01*
X0045077Y0088880D01*
X0044708Y0088511D02*
X0026200Y0088511D01*
X0026200Y0089709D02*
X0076437Y0089709D01*
X0077635Y0088511D02*
X0048492Y0088511D01*
X0049216Y0087312D02*
X0078834Y0087312D01*
X0080032Y0086114D02*
X0049289Y0086114D01*
X0048718Y0084915D02*
X0068551Y0084915D01*
X0069051Y0085415D02*
X0067785Y0084149D01*
X0067100Y0082495D01*
X0067100Y0080705D01*
X0067785Y0079051D01*
X0069051Y0077785D01*
X0070705Y0077100D01*
X0072495Y0077100D01*
X0074149Y0077785D01*
X0075415Y0079051D01*
X0076100Y0080705D01*
X0076100Y0082495D01*
X0075415Y0084149D01*
X0074149Y0085415D01*
X0072495Y0086100D01*
X0070705Y0086100D01*
X0069051Y0085415D01*
X0067606Y0083717D02*
X0048400Y0083717D01*
X0048400Y0082518D02*
X0067110Y0082518D01*
X0067100Y0081320D02*
X0048400Y0081320D01*
X0048400Y0080121D02*
X0067342Y0080121D01*
X0067913Y0078923D02*
X0048400Y0078923D01*
X0047770Y0077724D02*
X0069198Y0077724D01*
X0074002Y0077724D02*
X0080855Y0077724D01*
X0080100Y0078923D02*
X0075287Y0078923D01*
X0075858Y0080121D02*
X0080100Y0080121D01*
X0080100Y0081320D02*
X0076100Y0081320D01*
X0076090Y0082518D02*
X0080100Y0082518D01*
X0080100Y0083717D02*
X0075594Y0083717D01*
X0074649Y0084915D02*
X0080100Y0084915D01*
X0084074Y0089709D02*
X0096228Y0089709D01*
X0097427Y0088511D02*
X0085272Y0088511D01*
X0086471Y0087312D02*
X0098625Y0087312D01*
X0099824Y0086114D02*
X0087669Y0086114D01*
X0088659Y0084915D02*
X0111022Y0084915D01*
X0110937Y0085000D02*
X0113911Y0082026D01*
X0113911Y0081065D01*
X0114320Y0080077D01*
X0115077Y0079320D01*
X0116065Y0078911D01*
X0117135Y0078911D01*
X0118123Y0079320D01*
X0118880Y0080077D01*
X0119289Y0081065D01*
X0119289Y0082135D01*
X0118880Y0083123D01*
X0118123Y0083880D01*
X0117135Y0084289D01*
X0116174Y0084289D01*
X0112263Y0088200D01*
X0102263Y0088200D01*
X0094981Y0095482D01*
X0094981Y0099454D01*
X0094466Y0100696D01*
X0093515Y0101647D01*
X0092273Y0102162D01*
X0090927Y0102162D01*
X0089685Y0101647D01*
X0088734Y0100696D01*
X0088219Y0099454D01*
X0088219Y0093746D01*
X0088734Y0092504D01*
X0089685Y0091553D01*
X0090927Y0091038D01*
X0092273Y0091038D01*
X0093515Y0091553D01*
X0093950Y0091987D01*
X0100000Y0085937D01*
X0100937Y0085000D01*
X0110937Y0085000D01*
X0112221Y0083717D02*
X0089857Y0083717D01*
X0090400Y0082518D02*
X0113419Y0082518D01*
X0113911Y0081320D02*
X0090400Y0081320D01*
X0090400Y0080121D02*
X0114302Y0080121D01*
X0116037Y0078923D02*
X0089297Y0078923D01*
X0087647Y0077724D02*
X0120000Y0077724D01*
X0120000Y0076526D02*
X0088100Y0076526D01*
X0088100Y0075327D02*
X0120000Y0075327D01*
X0120000Y0074129D02*
X0088100Y0074129D01*
X0088100Y0072930D02*
X0120000Y0072930D01*
X0120000Y0071732D02*
X0088100Y0071732D01*
X0088100Y0070533D02*
X0120000Y0070533D01*
X0120000Y0069334D02*
X0088100Y0069334D01*
X0088100Y0068136D02*
X0108464Y0068136D01*
X0107266Y0066937D02*
X0089137Y0066937D01*
X0090335Y0065739D02*
X0106067Y0065739D01*
X0104869Y0064540D02*
X0090400Y0064540D01*
X0090400Y0063342D02*
X0103670Y0063342D01*
X0102472Y0062143D02*
X0090017Y0062143D01*
X0088819Y0060945D02*
X0101273Y0060945D01*
X0100075Y0059746D02*
X0088100Y0059746D01*
X0088100Y0058548D02*
X0098876Y0058548D01*
X0097678Y0057349D02*
X0088100Y0057349D01*
X0088100Y0056151D02*
X0096479Y0056151D01*
X0095281Y0054952D02*
X0088100Y0054952D01*
X0088100Y0053754D02*
X0094082Y0053754D01*
X0092884Y0052555D02*
X0088519Y0052555D01*
X0089717Y0051357D02*
X0091685Y0051357D01*
X0090487Y0050158D02*
X0090400Y0050158D01*
X0092615Y0047761D02*
X0120000Y0047761D01*
X0120000Y0046563D02*
X0091417Y0046563D01*
X0090218Y0045364D02*
X0120000Y0045364D01*
X0120000Y0044166D02*
X0089020Y0044166D01*
X0089978Y0041769D02*
X0083222Y0041769D01*
X0084519Y0040570D02*
X0088681Y0040570D01*
X0088219Y0039372D02*
X0084981Y0039372D01*
X0084981Y0038173D02*
X0088219Y0038173D01*
X0088219Y0036975D02*
X0084981Y0036975D01*
X0084981Y0035776D02*
X0088219Y0035776D01*
X0088219Y0034578D02*
X0084981Y0034578D01*
X0084829Y0033379D02*
X0088371Y0033379D01*
X0089057Y0032181D02*
X0084143Y0032181D01*
X0083600Y0030982D02*
X0089600Y0030982D01*
X0089600Y0029784D02*
X0083600Y0029784D01*
X0083600Y0028585D02*
X0089600Y0028585D01*
X0088827Y0027387D02*
X0084373Y0027387D01*
X0084981Y0026188D02*
X0088219Y0026188D01*
X0088219Y0024990D02*
X0084981Y0024990D01*
X0084981Y0023791D02*
X0088219Y0023791D01*
X0088219Y0022593D02*
X0084981Y0022593D01*
X0084953Y0021394D02*
X0088247Y0021394D01*
X0094953Y0021394D02*
X0098247Y0021394D01*
X0098219Y0022593D02*
X0094981Y0022593D01*
X0094981Y0023791D02*
X0098219Y0023791D01*
X0098219Y0024990D02*
X0094981Y0024990D01*
X0094981Y0026188D02*
X0098219Y0026188D01*
X0098827Y0027387D02*
X0094373Y0027387D01*
X0093600Y0028585D02*
X0099600Y0028585D01*
X0099600Y0029784D02*
X0093600Y0029784D01*
X0093600Y0030982D02*
X0099600Y0030982D01*
X0099057Y0032181D02*
X0094143Y0032181D01*
X0094829Y0033379D02*
X0098371Y0033379D01*
X0098219Y0034578D02*
X0094981Y0034578D01*
X0094981Y0035776D02*
X0098219Y0035776D01*
X0098219Y0036975D02*
X0094981Y0036975D01*
X0094981Y0038173D02*
X0098219Y0038173D01*
X0098219Y0039372D02*
X0094981Y0039372D01*
X0094519Y0040570D02*
X0098681Y0040570D01*
X0099978Y0041769D02*
X0093222Y0041769D01*
X0093814Y0048960D02*
X0120000Y0048960D01*
X0120000Y0050158D02*
X0095012Y0050158D01*
X0096211Y0051357D02*
X0120000Y0051357D01*
X0120000Y0052555D02*
X0097409Y0052555D01*
X0098608Y0053754D02*
X0120000Y0053754D01*
X0120000Y0054952D02*
X0099806Y0054952D01*
X0101005Y0056151D02*
X0120000Y0056151D01*
X0120000Y0057349D02*
X0102203Y0057349D01*
X0103402Y0058548D02*
X0120000Y0058548D01*
X0120000Y0059746D02*
X0104600Y0059746D01*
X0105799Y0060945D02*
X0120000Y0060945D01*
X0120000Y0062143D02*
X0106997Y0062143D01*
X0108196Y0063342D02*
X0120000Y0063342D01*
X0120000Y0064540D02*
X0113343Y0064540D01*
X0114154Y0065739D02*
X0120000Y0065739D01*
X0120000Y0066937D02*
X0114289Y0066937D01*
X0113867Y0068136D02*
X0120000Y0068136D01*
X0128100Y0068136D02*
X0188800Y0068136D01*
X0188800Y0069334D02*
X0128100Y0069334D01*
X0128100Y0070533D02*
X0188800Y0070533D01*
X0188800Y0071732D02*
X0128100Y0071732D01*
X0128100Y0072930D02*
X0188800Y0072930D01*
X0188800Y0074129D02*
X0128100Y0074129D01*
X0128100Y0075327D02*
X0188800Y0075327D01*
X0188800Y0076526D02*
X0128597Y0076526D01*
X0129795Y0077724D02*
X0188800Y0077724D01*
X0188800Y0078923D02*
X0130994Y0078923D01*
X0131600Y0080121D02*
X0188800Y0080121D01*
X0188800Y0081320D02*
X0131600Y0081320D01*
X0131600Y0082518D02*
X0188800Y0082518D01*
X0188800Y0083717D02*
X0131600Y0083717D01*
X0131600Y0084915D02*
X0188800Y0084915D01*
X0188800Y0086114D02*
X0131600Y0086114D01*
X0131600Y0087312D02*
X0188800Y0087312D01*
X0188800Y0088511D02*
X0131600Y0088511D01*
X0131600Y0089709D02*
X0188800Y0089709D01*
X0188800Y0090908D02*
X0143004Y0090908D01*
X0142703Y0090783D02*
X0143391Y0091068D01*
X0144010Y0091482D01*
X0144537Y0092009D01*
X0144951Y0092628D01*
X0145236Y0093316D01*
X0145381Y0094046D01*
X0145381Y0096600D01*
X0145381Y0099154D01*
X0145236Y0099884D01*
X0144951Y0100572D01*
X0144537Y0101191D01*
X0144010Y0101718D01*
X0143391Y0102132D01*
X0142703Y0102417D01*
X0141972Y0102562D01*
X0141600Y0102562D01*
X0141600Y0096600D01*
X0145381Y0096600D01*
X0141600Y0096600D01*
X0141600Y0096600D01*
X0141600Y0096600D01*
X0141600Y0090638D01*
X0141972Y0090638D01*
X0142703Y0090783D01*
X0141600Y0090908D02*
X0141600Y0090908D01*
X0141600Y0090638D02*
X0141600Y0096600D01*
X0141600Y0096600D01*
X0141600Y0096600D01*
X0137819Y0096600D01*
X0137819Y0099154D01*
X0137964Y0099884D01*
X0138249Y0100572D01*
X0138663Y0101191D01*
X0139190Y0101718D01*
X0139809Y0102132D01*
X0140497Y0102417D01*
X0141228Y0102562D01*
X0141600Y0102562D01*
X0141600Y0096600D01*
X0137819Y0096600D01*
X0137819Y0094046D01*
X0137964Y0093316D01*
X0138249Y0092628D01*
X0138663Y0092009D01*
X0139190Y0091482D01*
X0139809Y0091068D01*
X0140497Y0090783D01*
X0141228Y0090638D01*
X0141600Y0090638D01*
X0140196Y0090908D02*
X0131600Y0090908D01*
X0134069Y0092106D02*
X0138598Y0092106D01*
X0137969Y0093305D02*
X0134798Y0093305D01*
X0134981Y0094503D02*
X0137819Y0094503D01*
X0137819Y0095702D02*
X0134981Y0095702D01*
X0134981Y0096900D02*
X0137819Y0096900D01*
X0137819Y0098099D02*
X0134981Y0098099D01*
X0134981Y0099297D02*
X0137848Y0099297D01*
X0138218Y0100496D02*
X0134549Y0100496D01*
X0133402Y0101694D02*
X0139166Y0101694D01*
X0141600Y0101694D02*
X0141600Y0101694D01*
X0141600Y0100496D02*
X0141600Y0100496D01*
X0141600Y0099297D02*
X0141600Y0099297D01*
X0141600Y0098099D02*
X0141600Y0098099D01*
X0141600Y0096900D02*
X0141600Y0096900D01*
X0141600Y0095702D02*
X0141600Y0095702D01*
X0141600Y0094503D02*
X0141600Y0094503D01*
X0141600Y0093305D02*
X0141600Y0093305D01*
X0141600Y0092106D02*
X0141600Y0092106D01*
X0144602Y0092106D02*
X0149131Y0092106D01*
X0148734Y0092504D02*
X0149685Y0091553D01*
X0150927Y0091038D01*
X0152273Y0091038D01*
X0153515Y0091553D01*
X0154466Y0092504D01*
X0154981Y0093746D01*
X0154981Y0099454D01*
X0154466Y0100696D01*
X0153515Y0101647D01*
X0152273Y0102162D01*
X0150927Y0102162D01*
X0149685Y0101647D01*
X0148734Y0100696D01*
X0148219Y0099454D01*
X0148219Y0093746D01*
X0148734Y0092504D01*
X0148402Y0093305D02*
X0145231Y0093305D01*
X0145381Y0094503D02*
X0148219Y0094503D01*
X0148219Y0095702D02*
X0145381Y0095702D01*
X0145381Y0096900D02*
X0148219Y0096900D01*
X0148219Y0098099D02*
X0145381Y0098099D01*
X0145352Y0099297D02*
X0148219Y0099297D01*
X0148651Y0100496D02*
X0144982Y0100496D01*
X0144034Y0101694D02*
X0149798Y0101694D01*
X0153402Y0101694D02*
X0159798Y0101694D01*
X0159685Y0101647D02*
X0158734Y0100696D01*
X0158219Y0099454D01*
X0158219Y0093746D01*
X0158734Y0092504D01*
X0159685Y0091553D01*
X0160927Y0091038D01*
X0162273Y0091038D01*
X0163515Y0091553D01*
X0164466Y0092504D01*
X0164981Y0093746D01*
X0164981Y0099454D01*
X0164466Y0100696D01*
X0163515Y0101647D01*
X0162273Y0102162D01*
X0160927Y0102162D01*
X0159685Y0101647D01*
X0158651Y0100496D02*
X0154549Y0100496D01*
X0154981Y0099297D02*
X0158219Y0099297D01*
X0158219Y0098099D02*
X0154981Y0098099D01*
X0154981Y0096900D02*
X0158219Y0096900D01*
X0158219Y0095702D02*
X0154981Y0095702D01*
X0154981Y0094503D02*
X0158219Y0094503D01*
X0158402Y0093305D02*
X0154798Y0093305D01*
X0154069Y0092106D02*
X0159131Y0092106D01*
X0164069Y0092106D02*
X0169131Y0092106D01*
X0168734Y0092504D02*
X0169685Y0091553D01*
X0170927Y0091038D01*
X0172273Y0091038D01*
X0173515Y0091553D01*
X0174466Y0092504D01*
X0174981Y0093746D01*
X0174981Y0099454D01*
X0174466Y0100696D01*
X0173515Y0101647D01*
X0172273Y0102162D01*
X0170927Y0102162D01*
X0169685Y0101647D01*
X0168734Y0100696D01*
X0168219Y0099454D01*
X0168219Y0093746D01*
X0168734Y0092504D01*
X0168402Y0093305D02*
X0164798Y0093305D01*
X0164981Y0094503D02*
X0168219Y0094503D01*
X0168219Y0095702D02*
X0164981Y0095702D01*
X0164981Y0096900D02*
X0168219Y0096900D01*
X0168219Y0098099D02*
X0164981Y0098099D01*
X0164981Y0099297D02*
X0168219Y0099297D01*
X0168651Y0100496D02*
X0164549Y0100496D01*
X0163402Y0101694D02*
X0169798Y0101694D01*
X0173402Y0101694D02*
X0188800Y0101694D01*
X0188800Y0100496D02*
X0174549Y0100496D01*
X0174981Y0099297D02*
X0188800Y0099297D01*
X0188800Y0098099D02*
X0174981Y0098099D01*
X0174981Y0096900D02*
X0188800Y0096900D01*
X0188800Y0095702D02*
X0174981Y0095702D01*
X0174981Y0094503D02*
X0188800Y0094503D01*
X0188800Y0093305D02*
X0174798Y0093305D01*
X0174069Y0092106D02*
X0188800Y0092106D01*
X0194400Y0092106D02*
X0213850Y0092106D01*
X0213850Y0090908D02*
X0194400Y0090908D01*
X0194400Y0089709D02*
X0201252Y0089709D01*
X0201534Y0089991D02*
X0200409Y0088866D01*
X0199800Y0087396D01*
X0199800Y0085804D01*
X0200409Y0084334D01*
X0201534Y0083209D01*
X0203004Y0082600D01*
X0210196Y0082600D01*
X0211666Y0083209D01*
X0212791Y0084334D01*
X0213400Y0085804D01*
X0213400Y0087396D01*
X0212791Y0088866D01*
X0211666Y0089991D01*
X0210196Y0090600D01*
X0203004Y0090600D01*
X0201534Y0089991D01*
X0200262Y0088511D02*
X0194400Y0088511D01*
X0194400Y0087312D02*
X0199800Y0087312D01*
X0199800Y0086114D02*
X0194400Y0086114D01*
X0194400Y0084915D02*
X0200168Y0084915D01*
X0201027Y0083717D02*
X0194400Y0083717D01*
X0194400Y0082518D02*
X0213850Y0082518D01*
X0213850Y0081320D02*
X0194400Y0081320D01*
X0194400Y0080121D02*
X0213850Y0080121D01*
X0213850Y0078923D02*
X0194400Y0078923D01*
X0194400Y0077724D02*
X0213850Y0077724D01*
X0213850Y0076526D02*
X0194400Y0076526D01*
X0194400Y0075327D02*
X0213850Y0075327D01*
X0213850Y0074129D02*
X0194400Y0074129D01*
X0194400Y0072930D02*
X0213850Y0072930D01*
X0213850Y0071732D02*
X0194400Y0071732D01*
X0194400Y0070533D02*
X0213850Y0070533D01*
X0213850Y0069334D02*
X0194400Y0069334D01*
X0194400Y0068136D02*
X0213850Y0068136D01*
X0213850Y0066937D02*
X0194400Y0066937D01*
X0194400Y0065739D02*
X0213850Y0065739D01*
X0213850Y0064540D02*
X0194400Y0064540D01*
X0194400Y0063342D02*
X0213850Y0063342D01*
X0213850Y0062143D02*
X0194400Y0062143D01*
X0194400Y0060945D02*
X0213850Y0060945D01*
X0213850Y0059746D02*
X0194400Y0059746D01*
X0194400Y0058548D02*
X0213850Y0058548D01*
X0213850Y0057349D02*
X0194400Y0057349D01*
X0194400Y0056151D02*
X0213850Y0056151D01*
X0213850Y0054952D02*
X0193912Y0054952D01*
X0193974Y0055014D02*
X0194400Y0056043D01*
X0194400Y0103800D01*
X0202157Y0103800D01*
X0203186Y0104226D01*
X0203974Y0105014D01*
X0204400Y0106043D01*
X0204400Y0118800D01*
X0209657Y0118800D01*
X0210686Y0119226D01*
X0212179Y0120719D01*
X0213850Y0120719D01*
X0213850Y0117881D01*
X0211600Y0117881D01*
X0211600Y0114100D01*
X0211600Y0114100D01*
X0211600Y0110319D01*
X0213850Y0110319D01*
X0213850Y0027881D01*
X0211600Y0027881D01*
X0211600Y0024100D01*
X0211600Y0024100D01*
X0211600Y0024100D01*
X0207819Y0024100D01*
X0207819Y0026492D01*
X0207928Y0026899D01*
X0208139Y0027264D01*
X0208436Y0027561D01*
X0208801Y0027772D01*
X0209208Y0027881D01*
X0211600Y0027881D01*
X0211600Y0024100D01*
X0207819Y0024100D01*
X0207819Y0021708D01*
X0207928Y0021301D01*
X0207986Y0021200D01*
X0204759Y0021200D01*
X0204981Y0021422D01*
X0204981Y0026778D01*
X0204278Y0027481D01*
X0198922Y0027481D01*
X0198219Y0026778D01*
X0198219Y0021422D01*
X0198441Y0021200D01*
X0194759Y0021200D01*
X0194981Y0021422D01*
X0194981Y0026778D01*
X0194278Y0027481D01*
X0188922Y0027481D01*
X0188219Y0026778D01*
X0188219Y0021422D01*
X0188441Y0021200D01*
X0184759Y0021200D01*
X0184981Y0021422D01*
X0184981Y0026778D01*
X0184278Y0027481D01*
X0178922Y0027481D01*
X0178219Y0026778D01*
X0178219Y0021422D01*
X0178441Y0021200D01*
X0174759Y0021200D01*
X0174981Y0021422D01*
X0174981Y0026778D01*
X0174278Y0027481D01*
X0173200Y0027481D01*
X0173200Y0028513D01*
X0172263Y0029450D01*
X0170496Y0031216D01*
X0170927Y0031038D01*
X0172273Y0031038D01*
X0173515Y0031553D01*
X0174466Y0032504D01*
X0174981Y0033746D01*
X0174981Y0036021D01*
X0193186Y0054226D01*
X0193974Y0055014D01*
X0192714Y0053754D02*
X0213850Y0053754D01*
X0213850Y0052555D02*
X0191515Y0052555D01*
X0190317Y0051357D02*
X0213850Y0051357D01*
X0213850Y0050158D02*
X0189118Y0050158D01*
X0187920Y0048960D02*
X0213850Y0048960D01*
X0213850Y0047761D02*
X0186721Y0047761D01*
X0185523Y0046563D02*
X0213850Y0046563D01*
X0213850Y0045364D02*
X0184324Y0045364D01*
X0183126Y0044166D02*
X0213850Y0044166D01*
X0213850Y0042967D02*
X0181927Y0042967D01*
X0180729Y0041769D02*
X0213850Y0041769D01*
X0213850Y0040570D02*
X0179530Y0040570D01*
X0178332Y0039372D02*
X0213850Y0039372D01*
X0213850Y0038173D02*
X0177133Y0038173D01*
X0175934Y0036975D02*
X0213850Y0036975D01*
X0213850Y0035776D02*
X0174981Y0035776D01*
X0174981Y0034578D02*
X0213850Y0034578D01*
X0213850Y0033379D02*
X0174829Y0033379D01*
X0174143Y0032181D02*
X0213850Y0032181D01*
X0213850Y0030982D02*
X0170731Y0030982D01*
X0171929Y0029784D02*
X0213850Y0029784D01*
X0213850Y0028585D02*
X0173128Y0028585D01*
X0174373Y0027387D02*
X0178827Y0027387D01*
X0178219Y0026188D02*
X0174981Y0026188D01*
X0174981Y0024990D02*
X0178219Y0024990D01*
X0178219Y0023791D02*
X0174981Y0023791D01*
X0174981Y0022593D02*
X0178219Y0022593D01*
X0178247Y0021394D02*
X0174953Y0021394D01*
X0184373Y0027387D02*
X0188827Y0027387D01*
X0188219Y0026188D02*
X0184981Y0026188D01*
X0184981Y0024990D02*
X0188219Y0024990D01*
X0188219Y0023791D02*
X0184981Y0023791D01*
X0184981Y0022593D02*
X0188219Y0022593D01*
X0188247Y0021394D02*
X0184953Y0021394D01*
X0194373Y0027387D02*
X0198827Y0027387D01*
X0198219Y0026188D02*
X0194981Y0026188D01*
X0194981Y0024990D02*
X0198219Y0024990D01*
X0198219Y0023791D02*
X0194981Y0023791D01*
X0194981Y0022593D02*
X0198219Y0022593D01*
X0198247Y0021394D02*
X0194953Y0021394D01*
X0204953Y0021394D02*
X0207903Y0021394D01*
X0207819Y0022593D02*
X0204981Y0022593D01*
X0204981Y0023791D02*
X0207819Y0023791D01*
X0207819Y0024990D02*
X0204981Y0024990D01*
X0204981Y0026188D02*
X0207819Y0026188D01*
X0208262Y0027387D02*
X0204373Y0027387D01*
X0211600Y0027387D02*
X0211600Y0027387D01*
X0211600Y0026188D02*
X0211600Y0026188D01*
X0211600Y0024990D02*
X0211600Y0024990D01*
X0182190Y0054952D02*
X0140019Y0054952D01*
X0140019Y0053754D02*
X0180991Y0053754D01*
X0179793Y0052555D02*
X0140019Y0052555D01*
X0140019Y0051357D02*
X0178594Y0051357D01*
X0177396Y0050158D02*
X0140019Y0050158D01*
X0140019Y0048960D02*
X0176197Y0048960D01*
X0174999Y0047761D02*
X0140019Y0047761D01*
X0140019Y0046563D02*
X0173800Y0046563D01*
X0172602Y0045364D02*
X0140019Y0045364D01*
X0140019Y0044166D02*
X0171403Y0044166D01*
X0171945Y0042162D02*
X0150199Y0042162D01*
X0144637Y0036600D01*
X0141600Y0036600D01*
X0144519Y0040570D02*
X0146062Y0040570D01*
X0147260Y0041769D02*
X0143222Y0041769D01*
X0140019Y0042967D02*
X0148459Y0042967D01*
X0154605Y0040362D02*
X0158162Y0040362D01*
X0157964Y0039884D01*
X0157819Y0039154D01*
X0157819Y0036600D01*
X0161600Y0036600D01*
X0165381Y0036600D01*
X0165381Y0039154D01*
X0165236Y0039884D01*
X0165038Y0040362D01*
X0168595Y0040362D01*
X0168219Y0039454D01*
X0168219Y0033746D01*
X0168734Y0032504D01*
X0169287Y0031950D01*
X0164478Y0031950D01*
X0164537Y0032009D01*
X0164951Y0032628D01*
X0165236Y0033316D01*
X0165381Y0034046D01*
X0165381Y0036600D01*
X0161600Y0036600D01*
X0161600Y0036600D01*
X0161600Y0036600D01*
X0157819Y0036600D01*
X0157819Y0034046D01*
X0157964Y0033316D01*
X0158249Y0032628D01*
X0158663Y0032009D01*
X0158722Y0031950D01*
X0153913Y0031950D01*
X0154466Y0032504D01*
X0154981Y0033746D01*
X0154981Y0039454D01*
X0154605Y0040362D01*
X0154981Y0039372D02*
X0157862Y0039372D01*
X0157819Y0038173D02*
X0154981Y0038173D01*
X0154981Y0036975D02*
X0157819Y0036975D01*
X0157819Y0035776D02*
X0154981Y0035776D01*
X0154981Y0034578D02*
X0157819Y0034578D01*
X0157952Y0033379D02*
X0154829Y0033379D01*
X0154143Y0032181D02*
X0158548Y0032181D01*
X0164652Y0032181D02*
X0169057Y0032181D01*
X0168371Y0033379D02*
X0165248Y0033379D01*
X0165381Y0034578D02*
X0168219Y0034578D01*
X0168219Y0035776D02*
X0165381Y0035776D01*
X0165381Y0036975D02*
X0168219Y0036975D01*
X0168219Y0038173D02*
X0165381Y0038173D01*
X0165338Y0039372D02*
X0168219Y0039372D01*
X0171945Y0042162D02*
X0186491Y0056709D01*
X0184528Y0058548D02*
X0136915Y0058548D01*
X0138113Y0057349D02*
X0183846Y0057349D01*
X0183388Y0056151D02*
X0139312Y0056151D01*
X0135716Y0059746D02*
X0188800Y0059746D01*
X0188800Y0058548D02*
X0188455Y0058548D01*
X0188800Y0060945D02*
X0134518Y0060945D01*
X0134285Y0062143D02*
X0188800Y0062143D01*
X0188800Y0063342D02*
X0133661Y0063342D01*
X0130400Y0064540D02*
X0188800Y0064540D01*
X0188800Y0065739D02*
X0130335Y0065739D01*
X0129137Y0066937D02*
X0188800Y0066937D01*
X0212173Y0083717D02*
X0213850Y0083717D01*
X0213850Y0084915D02*
X0213032Y0084915D01*
X0213400Y0086114D02*
X0213850Y0086114D01*
X0213850Y0087312D02*
X0213400Y0087312D01*
X0213850Y0088511D02*
X0212938Y0088511D01*
X0213850Y0089709D02*
X0211948Y0089709D01*
X0210196Y0092600D02*
X0211666Y0093209D01*
X0212791Y0094334D01*
X0213400Y0095804D01*
X0213400Y0097396D01*
X0212791Y0098866D01*
X0211666Y0099991D01*
X0210196Y0100600D01*
X0203004Y0100600D01*
X0201534Y0099991D01*
X0200409Y0098866D01*
X0199800Y0097396D01*
X0199800Y0095804D01*
X0200409Y0094334D01*
X0201534Y0093209D01*
X0203004Y0092600D01*
X0210196Y0092600D01*
X0211762Y0093305D02*
X0213850Y0093305D01*
X0213850Y0094503D02*
X0212861Y0094503D01*
X0213357Y0095702D02*
X0213850Y0095702D01*
X0213850Y0096900D02*
X0213400Y0096900D01*
X0213109Y0098099D02*
X0213850Y0098099D01*
X0213850Y0099297D02*
X0212360Y0099297D01*
X0213850Y0100496D02*
X0210447Y0100496D01*
X0213850Y0101694D02*
X0194400Y0101694D01*
X0194400Y0100496D02*
X0202753Y0100496D01*
X0200840Y0099297D02*
X0194400Y0099297D01*
X0194400Y0098099D02*
X0200091Y0098099D01*
X0199800Y0096900D02*
X0194400Y0096900D01*
X0194400Y0095702D02*
X0199842Y0095702D01*
X0200339Y0094503D02*
X0194400Y0094503D01*
X0194400Y0093305D02*
X0201438Y0093305D01*
X0194400Y0102893D02*
X0213850Y0102893D01*
X0213850Y0104091D02*
X0202860Y0104091D01*
X0204088Y0105290D02*
X0213850Y0105290D01*
X0213850Y0106488D02*
X0204400Y0106488D01*
X0204400Y0107687D02*
X0213850Y0107687D01*
X0213850Y0108885D02*
X0204400Y0108885D01*
X0204400Y0110084D02*
X0213850Y0110084D01*
X0211600Y0110319D02*
X0211600Y0114100D01*
X0211600Y0114100D01*
X0211600Y0114100D01*
X0207819Y0114100D01*
X0207819Y0116492D01*
X0207928Y0116899D01*
X0208139Y0117264D01*
X0208436Y0117561D01*
X0208801Y0117772D01*
X0209208Y0117881D01*
X0211600Y0117881D01*
X0211600Y0114100D01*
X0207819Y0114100D01*
X0207819Y0111708D01*
X0207928Y0111301D01*
X0208139Y0110936D01*
X0208436Y0110639D01*
X0208801Y0110428D01*
X0209208Y0110319D01*
X0211600Y0110319D01*
X0211600Y0111282D02*
X0211600Y0111282D01*
X0211600Y0112481D02*
X0211600Y0112481D01*
X0211600Y0113679D02*
X0211600Y0113679D01*
X0211600Y0114878D02*
X0211600Y0114878D01*
X0211600Y0116076D02*
X0211600Y0116076D01*
X0211600Y0117275D02*
X0211600Y0117275D01*
X0213850Y0118473D02*
X0204400Y0118473D01*
X0204400Y0117275D02*
X0208150Y0117275D01*
X0207819Y0116076D02*
X0204400Y0116076D01*
X0204400Y0114878D02*
X0207819Y0114878D01*
X0207819Y0113679D02*
X0204400Y0113679D01*
X0204400Y0112481D02*
X0207819Y0112481D01*
X0207939Y0111282D02*
X0204400Y0111282D01*
X0198800Y0111282D02*
X0094842Y0111282D01*
X0094981Y0111422D02*
X0094278Y0110719D01*
X0088922Y0110719D01*
X0088219Y0111422D01*
X0088219Y0116778D01*
X0088922Y0117481D01*
X0094278Y0117481D01*
X0094981Y0116778D01*
X0094981Y0111422D01*
X0094981Y0112481D02*
X0198800Y0112481D01*
X0198800Y0113679D02*
X0094981Y0113679D01*
X0094981Y0114878D02*
X0159519Y0114878D01*
X0159320Y0115077D02*
X0160077Y0114320D01*
X0161065Y0113911D01*
X0162135Y0113911D01*
X0163123Y0114320D01*
X0163880Y0115077D01*
X0164289Y0116065D01*
X0164289Y0117135D01*
X0163880Y0118123D01*
X0163123Y0118880D01*
X0162135Y0119289D01*
X0161065Y0119289D01*
X0161042Y0119279D01*
X0150489Y0129832D01*
X0149610Y0130711D01*
X0149142Y0130711D01*
X0149289Y0131065D01*
X0149289Y0132135D01*
X0148880Y0133123D01*
X0148123Y0133880D01*
X0148100Y0133889D01*
X0148100Y0170100D01*
X0155508Y0170100D01*
X0155779Y0169447D01*
X0156847Y0168379D01*
X0158244Y0167800D01*
X0164956Y0167800D01*
X0166353Y0168379D01*
X0167421Y0169447D01*
X0168000Y0170844D01*
X0168000Y0172356D01*
X0167421Y0173753D01*
X0166353Y0174821D01*
X0164956Y0175400D01*
X0159972Y0175400D01*
X0162372Y0177800D01*
X0164956Y0177800D01*
X0166353Y0178379D01*
X0167421Y0179447D01*
X0168000Y0180844D01*
X0168000Y0182356D01*
X0167421Y0183753D01*
X0166353Y0184821D01*
X0164956Y0185400D01*
X0158244Y0185400D01*
X0157010Y0184889D01*
X0159921Y0187800D01*
X0164956Y0187800D01*
X0166353Y0188379D01*
X0167421Y0189447D01*
X0168000Y0190844D01*
X0168000Y0192356D01*
X0167421Y0193753D01*
X0166353Y0194821D01*
X0164956Y0195400D01*
X0158244Y0195400D01*
X0156847Y0194821D01*
X0155779Y0193753D01*
X0155200Y0192356D01*
X0155200Y0190844D01*
X0155779Y0189447D01*
X0156552Y0188674D01*
X0142600Y0174721D01*
X0142600Y0143100D01*
X0140979Y0143100D01*
X0140100Y0142221D01*
X0138368Y0140489D01*
X0137489Y0140489D01*
X0136610Y0139610D01*
X0135211Y0138211D01*
X0135211Y0134989D01*
X0136090Y0134110D01*
X0136610Y0133590D01*
X0137489Y0132711D01*
X0139989Y0132711D01*
X0144989Y0127711D01*
X0148368Y0127711D01*
X0158921Y0117158D01*
X0158911Y0117135D01*
X0158911Y0116065D01*
X0159320Y0115077D01*
X0158911Y0116076D02*
X0094981Y0116076D01*
X0094484Y0117275D02*
X0158804Y0117275D01*
X0157605Y0118473D02*
X0078686Y0118473D01*
X0078186Y0118974D02*
X0078007Y0119048D01*
X0078774Y0119814D01*
X0079200Y0120843D01*
X0079200Y0147165D01*
X0078774Y0148194D01*
X0077986Y0148982D01*
X0077447Y0149521D01*
X0077950Y0150735D01*
X0077950Y0152465D01*
X0077288Y0154064D01*
X0076064Y0155288D01*
X0074465Y0155950D01*
X0072735Y0155950D01*
X0071136Y0155288D01*
X0071050Y0155202D01*
X0071050Y0174271D01*
X0070348Y0174974D01*
X0070400Y0175026D01*
X0070400Y0178174D01*
X0068174Y0180400D01*
X0065026Y0180400D01*
X0062800Y0178174D01*
X0062800Y0175026D01*
X0065026Y0172800D01*
X0068050Y0172800D01*
X0068050Y0149301D01*
X0068929Y0148422D01*
X0070100Y0147251D01*
X0070100Y0132900D01*
X0070026Y0132900D01*
X0067800Y0130674D01*
X0067800Y0127526D01*
X0070026Y0125300D01*
X0073174Y0125300D01*
X0073600Y0125726D01*
X0073600Y0122560D01*
X0072140Y0121100D01*
X0070705Y0121100D01*
X0069051Y0120415D01*
X0067785Y0119149D01*
X0067100Y0117495D01*
X0067100Y0117282D01*
X0047481Y0136900D01*
X0047481Y0182860D01*
X0048100Y0183479D01*
X0048100Y0184721D01*
X0047221Y0185600D01*
X0042481Y0190340D01*
X0042481Y0194278D01*
X0042140Y0194619D01*
X0088219Y0194619D01*
X0088219Y0191422D01*
X0088922Y0190719D01*
X0091733Y0190719D01*
X0089800Y0188786D01*
X0089800Y0187481D01*
X0088922Y0187481D01*
X0088219Y0186778D01*
X0088219Y0181422D01*
X0088922Y0180719D01*
X0094278Y0180719D01*
X0094981Y0181422D01*
X0094981Y0186778D01*
X0094278Y0187481D01*
X0093586Y0187481D01*
X0095727Y0189622D01*
X0096781Y0190676D01*
X0096781Y0207524D01*
X0096078Y0208227D01*
X0095454Y0208850D01*
X0213850Y0208850D01*
X0213850Y0207481D01*
X0208922Y0207481D01*
X0208219Y0206778D01*
X0208219Y0201422D01*
X0208922Y0200719D01*
X0213850Y0200719D01*
X0213850Y0197481D01*
X0208922Y0197481D01*
X0208219Y0196778D01*
X0208219Y0191422D01*
X0208922Y0190719D01*
X0213850Y0190719D01*
X0213850Y0187481D01*
X0208922Y0187481D01*
X0208219Y0186778D01*
X0208219Y0181422D01*
X0208922Y0180719D01*
X0213850Y0180719D01*
X0213850Y0177481D01*
X0210340Y0177481D01*
X0201221Y0186600D01*
X0186929Y0186600D01*
X0186050Y0185721D01*
X0183429Y0183100D01*
X0175979Y0183100D01*
X0175100Y0182221D01*
X0175100Y0157221D01*
X0169200Y0151321D01*
X0169200Y0156121D01*
X0168321Y0157000D01*
X0166648Y0158674D01*
X0167421Y0159447D01*
X0168000Y0160844D01*
X0168000Y0162356D01*
X0167421Y0163753D01*
X0166353Y0164821D01*
X0164956Y0165400D01*
X0158244Y0165400D01*
X0156847Y0164821D01*
X0155779Y0163753D01*
X0155200Y0162356D01*
X0155200Y0160844D01*
X0155779Y0159447D01*
X0156847Y0158379D01*
X0158244Y0157800D01*
X0163279Y0157800D01*
X0166190Y0154889D01*
X0164956Y0155400D01*
X0158244Y0155400D01*
X0156847Y0154821D01*
X0155779Y0153753D01*
X0155200Y0152356D01*
X0155200Y0150844D01*
X0155779Y0149447D01*
X0156847Y0148379D01*
X0158163Y0147834D01*
X0154879Y0144550D01*
X0154879Y0144550D01*
X0154000Y0143671D01*
X0154000Y0139529D01*
X0158163Y0135366D01*
X0156847Y0134821D01*
X0155779Y0133753D01*
X0155200Y0132356D01*
X0155200Y0130844D01*
X0155779Y0129447D01*
X0156847Y0128379D01*
X0158244Y0127800D01*
X0164956Y0127800D01*
X0166353Y0128379D01*
X0167421Y0129447D01*
X0168000Y0130844D01*
X0168000Y0132356D01*
X0167421Y0133753D01*
X0166353Y0134821D01*
X0164956Y0135400D01*
X0162372Y0135400D01*
X0159972Y0137800D01*
X0164956Y0137800D01*
X0166353Y0138379D01*
X0167421Y0139447D01*
X0168000Y0140844D01*
X0168000Y0142356D01*
X0167421Y0143753D01*
X0166648Y0144526D01*
X0177221Y0155100D01*
X0178100Y0155979D01*
X0178100Y0180100D01*
X0184672Y0180100D01*
X0185263Y0180692D01*
X0185779Y0179447D01*
X0186847Y0178379D01*
X0188244Y0177800D01*
X0193279Y0177800D01*
X0196190Y0174889D01*
X0194956Y0175400D01*
X0188244Y0175400D01*
X0186847Y0174821D01*
X0185779Y0173753D01*
X0185200Y0172356D01*
X0185200Y0170844D01*
X0185779Y0169447D01*
X0186847Y0168379D01*
X0188244Y0167800D01*
X0194956Y0167800D01*
X0196353Y0168379D01*
X0197421Y0169447D01*
X0198000Y0170844D01*
X0198000Y0172356D01*
X0197489Y0173590D01*
X0207600Y0163479D01*
X0208219Y0162860D01*
X0208219Y0161422D01*
X0208922Y0160719D01*
X0213850Y0160719D01*
X0213850Y0157481D01*
X0208922Y0157481D01*
X0208219Y0156778D01*
X0208219Y0151422D01*
X0208922Y0150719D01*
X0213850Y0150719D01*
X0213850Y0147481D01*
X0208922Y0147481D01*
X0208219Y0146778D01*
X0208219Y0141422D01*
X0208922Y0140719D01*
X0213850Y0140719D01*
X0213850Y0137481D01*
X0208922Y0137481D01*
X0208219Y0136778D01*
X0208219Y0131422D01*
X0208922Y0130719D01*
X0213850Y0130719D01*
X0213850Y0127481D01*
X0208922Y0127481D01*
X0208219Y0126778D01*
X0208219Y0124679D01*
X0207940Y0124400D01*
X0201043Y0124400D01*
X0200014Y0123974D01*
X0199226Y0123186D01*
X0198800Y0122157D01*
X0198800Y0109400D01*
X0087760Y0109400D01*
X0078186Y0118974D01*
X0078632Y0119672D02*
X0156407Y0119672D01*
X0155208Y0120870D02*
X0094430Y0120870D01*
X0094278Y0120719D02*
X0094981Y0121422D01*
X0094981Y0126778D01*
X0094278Y0127481D01*
X0088922Y0127481D01*
X0088219Y0126778D01*
X0088219Y0121422D01*
X0088922Y0120719D01*
X0094278Y0120719D01*
X0094981Y0122069D02*
X0154010Y0122069D01*
X0152811Y0123268D02*
X0094981Y0123268D01*
X0094981Y0124466D02*
X0151613Y0124466D01*
X0150414Y0125665D02*
X0094981Y0125665D01*
X0094896Y0126863D02*
X0149216Y0126863D01*
X0151061Y0129260D02*
X0155966Y0129260D01*
X0155360Y0130459D02*
X0149863Y0130459D01*
X0149289Y0131657D02*
X0155200Y0131657D01*
X0155407Y0132856D02*
X0148990Y0132856D01*
X0148100Y0134054D02*
X0156080Y0134054D01*
X0157888Y0135253D02*
X0148100Y0135253D01*
X0148100Y0136451D02*
X0157078Y0136451D01*
X0155879Y0137650D02*
X0148100Y0137650D01*
X0148100Y0138848D02*
X0154681Y0138848D01*
X0154000Y0140047D02*
X0148100Y0140047D01*
X0148100Y0141245D02*
X0154000Y0141245D01*
X0154000Y0142444D02*
X0148100Y0142444D01*
X0148100Y0143642D02*
X0154000Y0143642D01*
X0155170Y0144841D02*
X0148100Y0144841D01*
X0148100Y0146039D02*
X0156368Y0146039D01*
X0157567Y0147238D02*
X0148100Y0147238D01*
X0148100Y0148436D02*
X0156790Y0148436D01*
X0155701Y0149635D02*
X0148100Y0149635D01*
X0148100Y0150833D02*
X0155204Y0150833D01*
X0155200Y0152032D02*
X0148100Y0152032D01*
X0148100Y0153230D02*
X0155562Y0153230D01*
X0156455Y0154429D02*
X0148100Y0154429D01*
X0148100Y0155627D02*
X0165451Y0155627D01*
X0164253Y0156826D02*
X0148100Y0156826D01*
X0148100Y0158024D02*
X0157703Y0158024D01*
X0156003Y0159223D02*
X0148100Y0159223D01*
X0148100Y0160421D02*
X0155375Y0160421D01*
X0155200Y0161620D02*
X0148100Y0161620D01*
X0148100Y0162818D02*
X0155392Y0162818D01*
X0156043Y0164017D02*
X0148100Y0164017D01*
X0148100Y0165215D02*
X0157798Y0165215D01*
X0156415Y0168811D02*
X0148100Y0168811D01*
X0148100Y0170009D02*
X0155546Y0170009D01*
X0148100Y0167612D02*
X0175100Y0167612D01*
X0175100Y0166414D02*
X0148100Y0166414D01*
X0142600Y0166414D02*
X0094981Y0166414D01*
X0094981Y0166778D02*
X0094278Y0167481D01*
X0088922Y0167481D01*
X0088219Y0166778D01*
X0088219Y0161422D01*
X0088922Y0160719D01*
X0094278Y0160719D01*
X0094981Y0161422D01*
X0094981Y0166778D01*
X0094981Y0165215D02*
X0142600Y0165215D01*
X0142600Y0164017D02*
X0094981Y0164017D01*
X0094981Y0162818D02*
X0142600Y0162818D01*
X0142600Y0161620D02*
X0094981Y0161620D01*
X0094278Y0157481D02*
X0088922Y0157481D01*
X0088219Y0156778D01*
X0088219Y0151422D01*
X0088922Y0150719D01*
X0094278Y0150719D01*
X0094981Y0151422D01*
X0094981Y0156778D01*
X0094278Y0157481D01*
X0094933Y0156826D02*
X0142600Y0156826D01*
X0142600Y0158024D02*
X0071050Y0158024D01*
X0071050Y0156826D02*
X0088267Y0156826D01*
X0088219Y0155627D02*
X0075244Y0155627D01*
X0076923Y0154429D02*
X0088219Y0154429D01*
X0088219Y0153230D02*
X0077633Y0153230D01*
X0077950Y0152032D02*
X0088219Y0152032D01*
X0088807Y0150833D02*
X0077950Y0150833D01*
X0077494Y0149635D02*
X0142600Y0149635D01*
X0142600Y0150833D02*
X0094393Y0150833D01*
X0094981Y0152032D02*
X0142600Y0152032D01*
X0142600Y0153230D02*
X0094981Y0153230D01*
X0094981Y0154429D02*
X0142600Y0154429D01*
X0142600Y0155627D02*
X0094981Y0155627D01*
X0094278Y0147481D02*
X0088922Y0147481D01*
X0088219Y0146778D01*
X0088219Y0141422D01*
X0088922Y0140719D01*
X0094278Y0140719D01*
X0094981Y0141422D01*
X0094981Y0146778D01*
X0094278Y0147481D01*
X0094522Y0147238D02*
X0142600Y0147238D01*
X0142600Y0148436D02*
X0078532Y0148436D01*
X0079170Y0147238D02*
X0088678Y0147238D01*
X0088219Y0146039D02*
X0079200Y0146039D01*
X0079200Y0144841D02*
X0088219Y0144841D01*
X0088219Y0143642D02*
X0079200Y0143642D01*
X0079200Y0142444D02*
X0088219Y0142444D01*
X0088396Y0141245D02*
X0079200Y0141245D01*
X0079200Y0140047D02*
X0137047Y0140047D01*
X0135848Y0138848D02*
X0079200Y0138848D01*
X0079200Y0137650D02*
X0135211Y0137650D01*
X0135211Y0136451D02*
X0094981Y0136451D01*
X0094981Y0136778D02*
X0094278Y0137481D01*
X0088922Y0137481D01*
X0088219Y0136778D01*
X0088219Y0131422D01*
X0088922Y0130719D01*
X0094278Y0130719D01*
X0094981Y0131422D01*
X0094981Y0136778D01*
X0094981Y0135253D02*
X0135211Y0135253D01*
X0136146Y0134054D02*
X0094981Y0134054D01*
X0094981Y0132856D02*
X0137345Y0132856D01*
X0141043Y0131657D02*
X0094981Y0131657D01*
X0088219Y0131657D02*
X0079200Y0131657D01*
X0079200Y0130459D02*
X0142242Y0130459D01*
X0143440Y0129260D02*
X0079200Y0129260D01*
X0079200Y0128062D02*
X0144639Y0128062D01*
X0152260Y0128062D02*
X0157613Y0128062D01*
X0154657Y0125665D02*
X0208219Y0125665D01*
X0208304Y0126863D02*
X0153458Y0126863D01*
X0155855Y0124466D02*
X0208006Y0124466D01*
X0211132Y0119672D02*
X0213850Y0119672D01*
X0213850Y0128062D02*
X0196475Y0128062D01*
X0196401Y0128008D02*
X0196936Y0128396D01*
X0197404Y0128864D01*
X0197792Y0129399D01*
X0198092Y0129988D01*
X0198297Y0130616D01*
X0198400Y0131269D01*
X0198400Y0131400D01*
X0191800Y0131400D01*
X0191800Y0131800D01*
X0191400Y0131800D01*
X0191400Y0135800D01*
X0188669Y0135800D01*
X0188016Y0135697D01*
X0187388Y0135492D01*
X0186799Y0135192D01*
X0186264Y0134804D01*
X0185796Y0134336D01*
X0185408Y0133801D01*
X0185108Y0133212D01*
X0184903Y0132584D01*
X0184800Y0131931D01*
X0184800Y0131800D01*
X0191400Y0131800D01*
X0191400Y0131400D01*
X0191800Y0131400D01*
X0191800Y0127400D01*
X0194531Y0127400D01*
X0195184Y0127503D01*
X0195812Y0127708D01*
X0196401Y0128008D01*
X0197691Y0129260D02*
X0213850Y0129260D01*
X0213850Y0130459D02*
X0198245Y0130459D01*
X0198400Y0131800D02*
X0198400Y0131931D01*
X0198297Y0132584D01*
X0198092Y0133212D01*
X0197792Y0133801D01*
X0197404Y0134336D01*
X0196936Y0134804D01*
X0196401Y0135192D01*
X0195812Y0135492D01*
X0195184Y0135697D01*
X0194531Y0135800D01*
X0191800Y0135800D01*
X0191800Y0131800D01*
X0198400Y0131800D01*
X0198208Y0132856D02*
X0208219Y0132856D01*
X0208219Y0134054D02*
X0197608Y0134054D01*
X0196283Y0135253D02*
X0208219Y0135253D01*
X0208219Y0136451D02*
X0161320Y0136451D01*
X0160122Y0137650D02*
X0213850Y0137650D01*
X0213850Y0138848D02*
X0196822Y0138848D01*
X0196353Y0138379D02*
X0197421Y0139447D01*
X0198000Y0140844D01*
X0198000Y0142356D01*
X0197421Y0143753D01*
X0196353Y0144821D01*
X0194956Y0145400D01*
X0188244Y0145400D01*
X0186847Y0144821D01*
X0185779Y0143753D01*
X0185200Y0142356D01*
X0185200Y0140844D01*
X0185779Y0139447D01*
X0186847Y0138379D01*
X0188244Y0137800D01*
X0194956Y0137800D01*
X0196353Y0138379D01*
X0197670Y0140047D02*
X0213850Y0140047D01*
X0208396Y0141245D02*
X0198000Y0141245D01*
X0197964Y0142444D02*
X0208219Y0142444D01*
X0208219Y0143642D02*
X0197467Y0143642D01*
X0196306Y0144841D02*
X0208219Y0144841D01*
X0208219Y0146039D02*
X0168161Y0146039D01*
X0169359Y0147238D02*
X0208678Y0147238D01*
X0208807Y0150833D02*
X0197995Y0150833D01*
X0198000Y0150844D02*
X0198000Y0152356D01*
X0197421Y0153753D01*
X0196353Y0154821D01*
X0194956Y0155400D01*
X0188244Y0155400D01*
X0186847Y0154821D01*
X0185779Y0153753D01*
X0185200Y0152356D01*
X0185200Y0150844D01*
X0185779Y0149447D01*
X0186847Y0148379D01*
X0188244Y0147800D01*
X0194956Y0147800D01*
X0196353Y0148379D01*
X0197421Y0149447D01*
X0198000Y0150844D01*
X0198000Y0152032D02*
X0208219Y0152032D01*
X0208219Y0153230D02*
X0197638Y0153230D01*
X0196745Y0154429D02*
X0208219Y0154429D01*
X0208219Y0155627D02*
X0177749Y0155627D01*
X0178100Y0156826D02*
X0208267Y0156826D01*
X0208219Y0161620D02*
X0198000Y0161620D01*
X0198000Y0162356D02*
X0197421Y0163753D01*
X0196353Y0164821D01*
X0194956Y0165400D01*
X0188244Y0165400D01*
X0186847Y0164821D01*
X0185779Y0163753D01*
X0185200Y0162356D01*
X0185200Y0160844D01*
X0185779Y0159447D01*
X0186847Y0158379D01*
X0188244Y0157800D01*
X0194956Y0157800D01*
X0196353Y0158379D01*
X0197421Y0159447D01*
X0198000Y0160844D01*
X0198000Y0162356D01*
X0197808Y0162818D02*
X0208219Y0162818D01*
X0207062Y0164017D02*
X0197157Y0164017D01*
X0195402Y0165215D02*
X0205863Y0165215D01*
X0204665Y0166414D02*
X0178100Y0166414D01*
X0178100Y0167612D02*
X0203466Y0167612D01*
X0202268Y0168811D02*
X0196785Y0168811D01*
X0197654Y0170009D02*
X0201069Y0170009D01*
X0199871Y0171208D02*
X0198000Y0171208D01*
X0197979Y0172406D02*
X0198672Y0172406D01*
X0200518Y0174803D02*
X0208219Y0174803D01*
X0208219Y0175360D02*
X0208219Y0171422D01*
X0208922Y0170719D01*
X0213850Y0170719D01*
X0213850Y0167481D01*
X0208922Y0167481D01*
X0208381Y0166940D01*
X0196648Y0178674D01*
X0197421Y0179447D01*
X0198000Y0180844D01*
X0198000Y0182356D01*
X0197485Y0183600D01*
X0199979Y0183600D01*
X0208219Y0175360D01*
X0207577Y0176002D02*
X0199319Y0176002D01*
X0198121Y0177201D02*
X0206378Y0177201D01*
X0205180Y0178399D02*
X0196922Y0178399D01*
X0197484Y0179598D02*
X0203981Y0179598D01*
X0202783Y0180796D02*
X0197980Y0180796D01*
X0198000Y0181995D02*
X0201584Y0181995D01*
X0200386Y0183193D02*
X0197653Y0183193D01*
X0202231Y0185590D02*
X0208219Y0185590D01*
X0208219Y0184392D02*
X0203430Y0184392D01*
X0204628Y0183193D02*
X0208219Y0183193D01*
X0208219Y0181995D02*
X0205827Y0181995D01*
X0207025Y0180796D02*
X0208845Y0180796D01*
X0208224Y0179598D02*
X0213850Y0179598D01*
X0213850Y0178399D02*
X0209422Y0178399D01*
X0208219Y0173605D02*
X0201716Y0173605D01*
X0202915Y0172406D02*
X0208219Y0172406D01*
X0208433Y0171208D02*
X0204113Y0171208D01*
X0205312Y0170009D02*
X0213850Y0170009D01*
X0213850Y0168811D02*
X0206510Y0168811D01*
X0207709Y0167612D02*
X0213850Y0167612D01*
X0213850Y0160421D02*
X0197825Y0160421D01*
X0197197Y0159223D02*
X0213850Y0159223D01*
X0213850Y0158024D02*
X0195497Y0158024D01*
X0187703Y0158024D02*
X0178100Y0158024D01*
X0178100Y0159223D02*
X0186003Y0159223D01*
X0185375Y0160421D02*
X0178100Y0160421D01*
X0178100Y0161620D02*
X0185200Y0161620D01*
X0185392Y0162818D02*
X0178100Y0162818D01*
X0178100Y0164017D02*
X0186043Y0164017D01*
X0187798Y0165215D02*
X0178100Y0165215D01*
X0178100Y0168811D02*
X0186415Y0168811D01*
X0185546Y0170009D02*
X0178100Y0170009D01*
X0178100Y0171208D02*
X0185200Y0171208D01*
X0185221Y0172406D02*
X0178100Y0172406D01*
X0178100Y0173605D02*
X0185717Y0173605D01*
X0186829Y0174803D02*
X0178100Y0174803D01*
X0178100Y0176002D02*
X0195077Y0176002D01*
X0193878Y0177201D02*
X0178100Y0177201D01*
X0178100Y0178399D02*
X0186827Y0178399D01*
X0185716Y0179598D02*
X0178100Y0179598D01*
X0175100Y0179598D02*
X0167484Y0179598D01*
X0167980Y0180796D02*
X0175100Y0180796D01*
X0175100Y0181995D02*
X0168000Y0181995D01*
X0167653Y0183193D02*
X0183522Y0183193D01*
X0184721Y0184392D02*
X0166782Y0184392D01*
X0165408Y0187987D02*
X0187792Y0187987D01*
X0188244Y0187800D02*
X0186847Y0188379D01*
X0185779Y0189447D01*
X0185200Y0190844D01*
X0185200Y0192356D01*
X0185779Y0193753D01*
X0186847Y0194821D01*
X0188244Y0195400D01*
X0194956Y0195400D01*
X0196353Y0194821D01*
X0197421Y0193753D01*
X0198000Y0192356D01*
X0198000Y0190844D01*
X0197421Y0189447D01*
X0196353Y0188379D01*
X0194956Y0187800D01*
X0188244Y0187800D01*
X0186040Y0189186D02*
X0167160Y0189186D01*
X0167809Y0190384D02*
X0185391Y0190384D01*
X0185200Y0191583D02*
X0168000Y0191583D01*
X0167824Y0192781D02*
X0185376Y0192781D01*
X0186006Y0193980D02*
X0167194Y0193980D01*
X0165491Y0195178D02*
X0187709Y0195178D01*
X0195491Y0195178D02*
X0208219Y0195178D01*
X0208219Y0193980D02*
X0197194Y0193980D01*
X0197824Y0192781D02*
X0208219Y0192781D01*
X0208219Y0191583D02*
X0198000Y0191583D01*
X0197809Y0190384D02*
X0213850Y0190384D01*
X0213850Y0189186D02*
X0197160Y0189186D01*
X0195408Y0187987D02*
X0213850Y0187987D01*
X0208229Y0186789D02*
X0158910Y0186789D01*
X0157711Y0185590D02*
X0185919Y0185590D01*
X0175100Y0178399D02*
X0166373Y0178399D01*
X0166370Y0174803D02*
X0175100Y0174803D01*
X0175100Y0173605D02*
X0167483Y0173605D01*
X0167979Y0172406D02*
X0175100Y0172406D01*
X0175100Y0171208D02*
X0168000Y0171208D01*
X0167654Y0170009D02*
X0175100Y0170009D01*
X0175100Y0168811D02*
X0166785Y0168811D01*
X0165402Y0165215D02*
X0175100Y0165215D01*
X0175100Y0164017D02*
X0167157Y0164017D01*
X0167808Y0162818D02*
X0175100Y0162818D01*
X0175100Y0161620D02*
X0168000Y0161620D01*
X0167825Y0160421D02*
X0175100Y0160421D01*
X0175100Y0159223D02*
X0167197Y0159223D01*
X0167297Y0158024D02*
X0175100Y0158024D01*
X0174705Y0156826D02*
X0168495Y0156826D01*
X0169200Y0155627D02*
X0173506Y0155627D01*
X0172307Y0154429D02*
X0169200Y0154429D01*
X0169200Y0153230D02*
X0171109Y0153230D01*
X0169910Y0152032D02*
X0169200Y0152032D01*
X0171756Y0149635D02*
X0185701Y0149635D01*
X0185204Y0150833D02*
X0172955Y0150833D01*
X0174153Y0152032D02*
X0185200Y0152032D01*
X0185562Y0153230D02*
X0175352Y0153230D01*
X0176550Y0154429D02*
X0186455Y0154429D01*
X0186790Y0148436D02*
X0170558Y0148436D01*
X0166962Y0144841D02*
X0186894Y0144841D01*
X0185733Y0143642D02*
X0167467Y0143642D01*
X0167964Y0142444D02*
X0185236Y0142444D01*
X0185200Y0141245D02*
X0168000Y0141245D01*
X0167670Y0140047D02*
X0185530Y0140047D01*
X0186378Y0138848D02*
X0166822Y0138848D01*
X0165312Y0135253D02*
X0186917Y0135253D01*
X0185592Y0134054D02*
X0167120Y0134054D01*
X0167793Y0132856D02*
X0184992Y0132856D01*
X0184800Y0131400D02*
X0184800Y0131269D01*
X0184903Y0130616D01*
X0185108Y0129988D01*
X0185408Y0129399D01*
X0185796Y0128864D01*
X0186264Y0128396D01*
X0186799Y0128008D01*
X0187388Y0127708D01*
X0188016Y0127503D01*
X0188669Y0127400D01*
X0191400Y0127400D01*
X0191400Y0131400D01*
X0184800Y0131400D01*
X0184955Y0130459D02*
X0167840Y0130459D01*
X0168000Y0131657D02*
X0191400Y0131657D01*
X0191800Y0131657D02*
X0208219Y0131657D01*
X0199308Y0123268D02*
X0157054Y0123268D01*
X0158252Y0122069D02*
X0198800Y0122069D01*
X0198800Y0120870D02*
X0159451Y0120870D01*
X0160649Y0119672D02*
X0198800Y0119672D01*
X0198800Y0118473D02*
X0163529Y0118473D01*
X0164231Y0117275D02*
X0198800Y0117275D01*
X0198800Y0116076D02*
X0164289Y0116076D01*
X0163681Y0114878D02*
X0198800Y0114878D01*
X0198800Y0110084D02*
X0087076Y0110084D01*
X0085877Y0111282D02*
X0088358Y0111282D01*
X0088219Y0112481D02*
X0084679Y0112481D01*
X0083480Y0113679D02*
X0088219Y0113679D01*
X0088219Y0114878D02*
X0082282Y0114878D01*
X0081083Y0116076D02*
X0088219Y0116076D01*
X0088716Y0117275D02*
X0079885Y0117275D01*
X0075561Y0113679D02*
X0075392Y0113679D01*
X0076590Y0112481D02*
X0076759Y0112481D01*
X0077789Y0111282D02*
X0077958Y0111282D01*
X0078987Y0110084D02*
X0079156Y0110084D01*
X0080186Y0108885D02*
X0080355Y0108885D01*
X0080600Y0107687D02*
X0081553Y0107687D01*
X0080600Y0106488D02*
X0082752Y0106488D01*
X0083950Y0105290D02*
X0080600Y0105290D01*
X0080600Y0104091D02*
X0085340Y0104091D01*
X0083402Y0101694D02*
X0089798Y0101694D01*
X0088651Y0100496D02*
X0084549Y0100496D01*
X0084981Y0099297D02*
X0088219Y0099297D01*
X0088219Y0098099D02*
X0084981Y0098099D01*
X0084981Y0096900D02*
X0088219Y0096900D01*
X0088219Y0095702D02*
X0084981Y0095702D01*
X0084981Y0094503D02*
X0088219Y0094503D01*
X0088402Y0093305D02*
X0084798Y0093305D01*
X0084069Y0092106D02*
X0089131Y0092106D01*
X0095030Y0090908D02*
X0082875Y0090908D01*
X0075238Y0090908D02*
X0026200Y0090908D01*
X0026200Y0092106D02*
X0029131Y0092106D01*
X0028734Y0092504D02*
X0029685Y0091553D01*
X0030927Y0091038D01*
X0032273Y0091038D01*
X0033515Y0091553D01*
X0034466Y0092504D01*
X0034981Y0093746D01*
X0034981Y0099454D01*
X0034466Y0100696D01*
X0033515Y0101647D01*
X0032273Y0102162D01*
X0030927Y0102162D01*
X0029685Y0101647D01*
X0028734Y0100696D01*
X0028219Y0099454D01*
X0028219Y0093746D01*
X0028734Y0092504D01*
X0028402Y0093305D02*
X0026200Y0093305D01*
X0026200Y0094503D02*
X0028219Y0094503D01*
X0028219Y0095702D02*
X0026200Y0095702D01*
X0026200Y0096900D02*
X0028219Y0096900D01*
X0028219Y0098099D02*
X0026200Y0098099D01*
X0026200Y0099297D02*
X0028219Y0099297D01*
X0028651Y0100496D02*
X0026200Y0100496D01*
X0026200Y0101694D02*
X0029798Y0101694D01*
X0033402Y0101694D02*
X0039798Y0101694D01*
X0038651Y0100496D02*
X0034549Y0100496D01*
X0034981Y0099297D02*
X0038219Y0099297D01*
X0038219Y0098099D02*
X0034981Y0098099D01*
X0034981Y0096900D02*
X0038219Y0096900D01*
X0038219Y0095702D02*
X0034981Y0095702D01*
X0034981Y0094503D02*
X0038219Y0094503D01*
X0038402Y0093305D02*
X0034798Y0093305D01*
X0034069Y0092106D02*
X0039131Y0092106D01*
X0043984Y0087312D02*
X0026200Y0087312D01*
X0026200Y0086114D02*
X0029665Y0086114D01*
X0029719Y0086141D02*
X0029032Y0085791D01*
X0028408Y0085338D01*
X0027862Y0084792D01*
X0027409Y0084168D01*
X0027059Y0083481D01*
X0026821Y0082747D01*
X0026718Y0082100D01*
X0031100Y0082100D01*
X0031100Y0086482D01*
X0030453Y0086379D01*
X0029719Y0086141D01*
X0031100Y0086114D02*
X0032100Y0086114D01*
X0032100Y0086482D02*
X0032747Y0086379D01*
X0033481Y0086141D01*
X0034168Y0085791D01*
X0034792Y0085338D01*
X0035338Y0084792D01*
X0035791Y0084168D01*
X0036141Y0083481D01*
X0036379Y0082747D01*
X0036482Y0082100D01*
X0032100Y0082100D01*
X0032100Y0081100D01*
X0036482Y0081100D01*
X0036379Y0080453D01*
X0036141Y0079719D01*
X0035791Y0079032D01*
X0035338Y0078408D01*
X0034792Y0077862D01*
X0034168Y0077409D01*
X0033481Y0077059D01*
X0032747Y0076821D01*
X0032100Y0076718D01*
X0032100Y0081100D01*
X0031100Y0081100D01*
X0031100Y0076718D01*
X0030453Y0076821D01*
X0029719Y0077059D01*
X0029032Y0077409D01*
X0028408Y0077862D01*
X0027862Y0078408D01*
X0027409Y0079032D01*
X0027059Y0079719D01*
X0026821Y0080453D01*
X0026718Y0081100D01*
X0031100Y0081100D01*
X0031100Y0082100D01*
X0032100Y0082100D01*
X0032100Y0086482D01*
X0033535Y0086114D02*
X0043911Y0086114D01*
X0044482Y0084915D02*
X0035214Y0084915D01*
X0036021Y0083717D02*
X0044800Y0083717D01*
X0044800Y0082518D02*
X0036416Y0082518D01*
X0036272Y0080121D02*
X0044800Y0080121D01*
X0044800Y0081320D02*
X0032100Y0081320D01*
X0031100Y0081320D02*
X0026200Y0081320D01*
X0026200Y0082518D02*
X0026784Y0082518D01*
X0027179Y0083717D02*
X0026200Y0083717D01*
X0026200Y0084915D02*
X0027986Y0084915D01*
X0031100Y0084915D02*
X0032100Y0084915D01*
X0032100Y0083717D02*
X0031100Y0083717D01*
X0031100Y0082518D02*
X0032100Y0082518D01*
X0032100Y0080121D02*
X0031100Y0080121D01*
X0031100Y0078923D02*
X0032100Y0078923D01*
X0032100Y0077724D02*
X0031100Y0077724D01*
X0028598Y0077724D02*
X0026200Y0077724D01*
X0026200Y0076526D02*
X0041480Y0076526D01*
X0042678Y0077724D02*
X0034602Y0077724D01*
X0035711Y0078923D02*
X0043877Y0078923D01*
X0046600Y0079100D02*
X0046600Y0086600D01*
X0046600Y0079100D02*
X0031600Y0064100D01*
X0029063Y0066937D02*
X0026200Y0066937D01*
X0026200Y0065739D02*
X0027865Y0065739D01*
X0027800Y0064540D02*
X0026200Y0064540D01*
X0026200Y0063342D02*
X0027800Y0063342D01*
X0028183Y0062143D02*
X0026200Y0062143D01*
X0026200Y0060945D02*
X0029381Y0060945D01*
X0033819Y0060945D02*
X0069381Y0060945D01*
X0070026Y0060300D02*
X0073174Y0060300D01*
X0075400Y0062526D01*
X0075400Y0065674D01*
X0073174Y0067900D01*
X0070026Y0067900D01*
X0067800Y0065674D01*
X0067800Y0062526D01*
X0070026Y0060300D01*
X0068183Y0062143D02*
X0035017Y0062143D01*
X0035400Y0063342D02*
X0067800Y0063342D01*
X0067800Y0064540D02*
X0035400Y0064540D01*
X0035785Y0065739D02*
X0067865Y0065739D01*
X0069063Y0066937D02*
X0036983Y0066937D01*
X0038182Y0068136D02*
X0083565Y0068136D01*
X0083850Y0069334D02*
X0039380Y0069334D01*
X0040579Y0070533D02*
X0083850Y0070533D01*
X0083850Y0071732D02*
X0041777Y0071732D01*
X0042976Y0072930D02*
X0083850Y0072930D01*
X0083850Y0074129D02*
X0044174Y0074129D01*
X0045373Y0075327D02*
X0083252Y0075327D01*
X0082053Y0076526D02*
X0046571Y0076526D01*
X0040281Y0075327D02*
X0026200Y0075327D01*
X0026200Y0074129D02*
X0039083Y0074129D01*
X0037884Y0072930D02*
X0026200Y0072930D01*
X0026200Y0071732D02*
X0036686Y0071732D01*
X0035487Y0070533D02*
X0026200Y0070533D01*
X0026200Y0069334D02*
X0034289Y0069334D01*
X0033090Y0068136D02*
X0026200Y0068136D01*
X0026200Y0059746D02*
X0083883Y0059746D01*
X0085081Y0058548D02*
X0026200Y0058548D01*
X0026200Y0057349D02*
X0085100Y0057349D01*
X0085100Y0056151D02*
X0026200Y0056151D01*
X0026200Y0054952D02*
X0085100Y0054952D01*
X0085100Y0053754D02*
X0026200Y0053754D01*
X0026200Y0052555D02*
X0029116Y0052555D01*
X0029860Y0053300D02*
X0027400Y0050840D01*
X0027400Y0049300D01*
X0031400Y0049300D01*
X0031400Y0053300D01*
X0029860Y0053300D01*
X0031400Y0052555D02*
X0031800Y0052555D01*
X0031800Y0053300D02*
X0033340Y0053300D01*
X0035800Y0050840D01*
X0035800Y0049300D01*
X0031800Y0049300D01*
X0031800Y0048900D01*
X0035800Y0048900D01*
X0035800Y0047360D01*
X0033340Y0044900D01*
X0031800Y0044900D01*
X0031800Y0048900D01*
X0031400Y0048900D01*
X0031400Y0044900D01*
X0029860Y0044900D01*
X0027400Y0047360D01*
X0027400Y0048900D01*
X0031400Y0048900D01*
X0031400Y0049300D01*
X0031800Y0049300D01*
X0031800Y0053300D01*
X0031800Y0051357D02*
X0031400Y0051357D01*
X0031400Y0050158D02*
X0031800Y0050158D01*
X0031800Y0048960D02*
X0067800Y0048960D01*
X0067800Y0050158D02*
X0035800Y0050158D01*
X0035283Y0051357D02*
X0068483Y0051357D01*
X0069681Y0052555D02*
X0034084Y0052555D01*
X0031400Y0048960D02*
X0026200Y0048960D01*
X0026200Y0050158D02*
X0027400Y0050158D01*
X0027917Y0051357D02*
X0026200Y0051357D01*
X0026200Y0047761D02*
X0027400Y0047761D01*
X0028198Y0046563D02*
X0026200Y0046563D01*
X0026200Y0045364D02*
X0029396Y0045364D01*
X0031400Y0045364D02*
X0031800Y0045364D01*
X0031800Y0046563D02*
X0031400Y0046563D01*
X0031400Y0047761D02*
X0031800Y0047761D01*
X0033804Y0045364D02*
X0038102Y0045364D01*
X0039300Y0046563D02*
X0035002Y0046563D01*
X0035800Y0047761D02*
X0067800Y0047761D01*
X0069978Y0041769D02*
X0063222Y0041769D01*
X0064519Y0040570D02*
X0068681Y0040570D01*
X0068219Y0039372D02*
X0064981Y0039372D01*
X0064981Y0038173D02*
X0068219Y0038173D01*
X0068219Y0036975D02*
X0064981Y0036975D01*
X0064981Y0035776D02*
X0068219Y0035776D01*
X0068219Y0034578D02*
X0064981Y0034578D01*
X0064829Y0033379D02*
X0068371Y0033379D01*
X0069057Y0032181D02*
X0064143Y0032181D01*
X0063600Y0030982D02*
X0069600Y0030982D01*
X0069600Y0029784D02*
X0063600Y0029784D01*
X0063600Y0028585D02*
X0069600Y0028585D01*
X0068827Y0027387D02*
X0064373Y0027387D01*
X0064981Y0026188D02*
X0068219Y0026188D01*
X0068219Y0024990D02*
X0064981Y0024990D01*
X0064981Y0023791D02*
X0068219Y0023791D01*
X0068219Y0022593D02*
X0064981Y0022593D01*
X0064953Y0021394D02*
X0068247Y0021394D01*
X0074953Y0021394D02*
X0078247Y0021394D01*
X0078219Y0022593D02*
X0074981Y0022593D01*
X0074981Y0023791D02*
X0078219Y0023791D01*
X0078219Y0024990D02*
X0074981Y0024990D01*
X0074981Y0026188D02*
X0078219Y0026188D01*
X0078827Y0027387D02*
X0074373Y0027387D01*
X0073600Y0028585D02*
X0079600Y0028585D01*
X0079600Y0029784D02*
X0073600Y0029784D01*
X0073600Y0030982D02*
X0079600Y0030982D01*
X0079057Y0032181D02*
X0074143Y0032181D01*
X0074829Y0033379D02*
X0078371Y0033379D01*
X0078219Y0034578D02*
X0074981Y0034578D01*
X0074981Y0035776D02*
X0078219Y0035776D01*
X0078219Y0036975D02*
X0074981Y0036975D01*
X0074981Y0038173D02*
X0078219Y0038173D01*
X0078219Y0039372D02*
X0074981Y0039372D01*
X0074519Y0040570D02*
X0078681Y0040570D01*
X0079978Y0041769D02*
X0073222Y0041769D01*
X0075400Y0047761D02*
X0082800Y0047761D01*
X0082800Y0048960D02*
X0075400Y0048960D01*
X0075400Y0050158D02*
X0082800Y0050158D01*
X0083483Y0051357D02*
X0074717Y0051357D01*
X0073519Y0052555D02*
X0084681Y0052555D01*
X0082684Y0060945D02*
X0073819Y0060945D01*
X0075017Y0062143D02*
X0081600Y0062143D01*
X0081600Y0063342D02*
X0075400Y0063342D01*
X0075400Y0064540D02*
X0081600Y0064540D01*
X0081600Y0065739D02*
X0075335Y0065739D01*
X0074137Y0066937D02*
X0082366Y0066937D01*
X0101952Y0088511D02*
X0115588Y0088511D01*
X0116787Y0087312D02*
X0113151Y0087312D01*
X0114349Y0086114D02*
X0117985Y0086114D01*
X0119184Y0084915D02*
X0115548Y0084915D01*
X0118286Y0083717D02*
X0120000Y0083717D01*
X0120000Y0082518D02*
X0119130Y0082518D01*
X0119289Y0081320D02*
X0120000Y0081320D01*
X0120000Y0080121D02*
X0118898Y0080121D01*
X0120000Y0078923D02*
X0117163Y0078923D01*
X0124208Y0086114D02*
X0125100Y0086114D01*
X0125100Y0087312D02*
X0123009Y0087312D01*
X0121811Y0088511D02*
X0125100Y0088511D01*
X0125100Y0089709D02*
X0120612Y0089709D01*
X0119414Y0090908D02*
X0125100Y0090908D01*
X0128100Y0090908D02*
X0128600Y0090908D01*
X0128600Y0092106D02*
X0128100Y0092106D01*
X0128402Y0093305D02*
X0127017Y0093305D01*
X0125818Y0094503D02*
X0128219Y0094503D01*
X0128219Y0095702D02*
X0124981Y0095702D01*
X0124981Y0096900D02*
X0128219Y0096900D01*
X0128219Y0098099D02*
X0124981Y0098099D01*
X0124981Y0099297D02*
X0128219Y0099297D01*
X0128651Y0100496D02*
X0124549Y0100496D01*
X0123402Y0101694D02*
X0129798Y0101694D01*
X0119798Y0101694D02*
X0113402Y0101694D01*
X0114549Y0100496D02*
X0118651Y0100496D01*
X0118219Y0099297D02*
X0114981Y0099297D01*
X0114981Y0098099D02*
X0118219Y0098099D01*
X0118219Y0096900D02*
X0114981Y0096900D01*
X0114981Y0095702D02*
X0118219Y0095702D01*
X0118219Y0094503D02*
X0115818Y0094503D01*
X0117017Y0093305D02*
X0118402Y0093305D01*
X0118215Y0092106D02*
X0119131Y0092106D01*
X0109548Y0089709D02*
X0100754Y0089709D01*
X0099555Y0090908D02*
X0108350Y0090908D01*
X0107151Y0092106D02*
X0104069Y0092106D01*
X0104798Y0093305D02*
X0105953Y0093305D01*
X0108081Y0095702D02*
X0108219Y0095702D01*
X0108219Y0096900D02*
X0106883Y0096900D01*
X0105684Y0098099D02*
X0108219Y0098099D01*
X0108219Y0099297D02*
X0104981Y0099297D01*
X0104549Y0100496D02*
X0108651Y0100496D01*
X0109798Y0101694D02*
X0103402Y0101694D01*
X0099798Y0101694D02*
X0093402Y0101694D01*
X0094549Y0100496D02*
X0098651Y0100496D01*
X0098219Y0099297D02*
X0094981Y0099297D01*
X0094981Y0098099D02*
X0098219Y0098099D01*
X0098219Y0096900D02*
X0094981Y0096900D01*
X0094981Y0095702D02*
X0098219Y0095702D01*
X0098219Y0094503D02*
X0095959Y0094503D01*
X0097158Y0093305D02*
X0098402Y0093305D01*
X0098357Y0092106D02*
X0099131Y0092106D01*
X0080600Y0102893D02*
X0188800Y0102893D01*
X0186725Y0128062D02*
X0165587Y0128062D01*
X0167234Y0129260D02*
X0185509Y0129260D01*
X0191400Y0129260D02*
X0191800Y0129260D01*
X0191800Y0128062D02*
X0191400Y0128062D01*
X0191400Y0130459D02*
X0191800Y0130459D01*
X0191800Y0132856D02*
X0191400Y0132856D01*
X0191400Y0134054D02*
X0191800Y0134054D01*
X0191800Y0135253D02*
X0191400Y0135253D01*
X0196410Y0148436D02*
X0213850Y0148436D01*
X0213850Y0149635D02*
X0197499Y0149635D01*
X0175100Y0176002D02*
X0160574Y0176002D01*
X0161772Y0177201D02*
X0175100Y0177201D01*
X0155866Y0187987D02*
X0094092Y0187987D01*
X0094971Y0186789D02*
X0154667Y0186789D01*
X0153469Y0185590D02*
X0094981Y0185590D01*
X0094981Y0184392D02*
X0152270Y0184392D01*
X0151072Y0183193D02*
X0094981Y0183193D01*
X0094981Y0181995D02*
X0149873Y0181995D01*
X0148675Y0180796D02*
X0094355Y0180796D01*
X0091600Y0184100D02*
X0091600Y0188041D01*
X0094981Y0191422D01*
X0094981Y0206778D01*
X0094278Y0207481D01*
X0088922Y0207481D01*
X0088219Y0206778D01*
X0088219Y0203264D01*
X0086554Y0201600D01*
X0039100Y0201600D01*
X0042614Y0201600D01*
X0042481Y0203400D02*
X0042481Y0204278D01*
X0041778Y0204981D01*
X0036422Y0204981D01*
X0035719Y0204278D01*
X0035719Y0200019D01*
X0034973Y0200019D01*
X0033919Y0198964D01*
X0029936Y0194981D01*
X0026422Y0194981D01*
X0026200Y0194759D01*
X0026200Y0198441D01*
X0026422Y0198219D01*
X0031778Y0198219D01*
X0032481Y0198922D01*
X0032481Y0204278D01*
X0031778Y0204981D01*
X0026422Y0204981D01*
X0026200Y0204759D01*
X0026200Y0208850D01*
X0087746Y0208850D01*
X0087473Y0208578D01*
X0086419Y0207524D01*
X0086419Y0204010D01*
X0085809Y0203400D01*
X0042481Y0203400D01*
X0042481Y0203568D02*
X0085977Y0203568D01*
X0086419Y0204766D02*
X0041993Y0204766D01*
X0036207Y0204766D02*
X0031993Y0204766D01*
X0032481Y0203568D02*
X0035719Y0203568D01*
X0035719Y0202369D02*
X0032481Y0202369D01*
X0032481Y0201171D02*
X0035719Y0201171D01*
X0034927Y0199972D02*
X0032481Y0199972D01*
X0032333Y0198774D02*
X0033728Y0198774D01*
X0032530Y0197575D02*
X0026200Y0197575D01*
X0026200Y0196377D02*
X0031331Y0196377D01*
X0030133Y0195178D02*
X0026200Y0195178D01*
X0029100Y0191600D02*
X0035719Y0198219D01*
X0085719Y0198219D01*
X0091600Y0204100D01*
X0096781Y0203568D02*
X0208219Y0203568D01*
X0208219Y0204766D02*
X0096781Y0204766D01*
X0096781Y0205965D02*
X0208219Y0205965D01*
X0208604Y0207163D02*
X0096781Y0207163D01*
X0095943Y0208362D02*
X0213850Y0208362D01*
X0208219Y0202369D02*
X0096781Y0202369D01*
X0096781Y0201171D02*
X0208470Y0201171D01*
X0208219Y0196377D02*
X0096781Y0196377D01*
X0096781Y0197575D02*
X0213850Y0197575D01*
X0213850Y0198774D02*
X0096781Y0198774D01*
X0096781Y0199972D02*
X0213850Y0199972D01*
X0157709Y0195178D02*
X0096781Y0195178D01*
X0096781Y0193980D02*
X0156006Y0193980D01*
X0155376Y0192781D02*
X0096781Y0192781D01*
X0096781Y0191583D02*
X0155200Y0191583D01*
X0155391Y0190384D02*
X0096489Y0190384D01*
X0095290Y0189186D02*
X0156040Y0189186D01*
X0147476Y0179598D02*
X0068976Y0179598D01*
X0070175Y0178399D02*
X0146278Y0178399D01*
X0145079Y0177201D02*
X0094559Y0177201D01*
X0094278Y0177481D02*
X0088922Y0177481D01*
X0088219Y0176778D01*
X0088219Y0171422D01*
X0088922Y0170719D01*
X0094278Y0170719D01*
X0094981Y0171422D01*
X0094981Y0176778D01*
X0094278Y0177481D01*
X0094981Y0176002D02*
X0143881Y0176002D01*
X0142682Y0174803D02*
X0094981Y0174803D01*
X0094981Y0173605D02*
X0142600Y0173605D01*
X0142600Y0172406D02*
X0094981Y0172406D01*
X0094767Y0171208D02*
X0142600Y0171208D01*
X0142600Y0170009D02*
X0071050Y0170009D01*
X0071050Y0168811D02*
X0142600Y0168811D01*
X0142600Y0167612D02*
X0071050Y0167612D01*
X0071050Y0166414D02*
X0088219Y0166414D01*
X0088219Y0165215D02*
X0071050Y0165215D01*
X0071050Y0164017D02*
X0088219Y0164017D01*
X0088219Y0162818D02*
X0071050Y0162818D01*
X0071050Y0161620D02*
X0088219Y0161620D01*
X0088433Y0171208D02*
X0071050Y0171208D01*
X0071050Y0172406D02*
X0088219Y0172406D01*
X0088219Y0173605D02*
X0071050Y0173605D01*
X0070518Y0174803D02*
X0088219Y0174803D01*
X0088219Y0176002D02*
X0070400Y0176002D01*
X0070400Y0177201D02*
X0088641Y0177201D01*
X0088845Y0180796D02*
X0064236Y0180796D01*
X0064224Y0179598D02*
X0058976Y0179598D01*
X0059860Y0179900D02*
X0061400Y0179900D01*
X0061400Y0183900D01*
X0061800Y0183900D01*
X0061800Y0184300D01*
X0065800Y0184300D01*
X0065800Y0185840D01*
X0063340Y0188300D01*
X0061800Y0188300D01*
X0061800Y0184300D01*
X0061400Y0184300D01*
X0061400Y0188300D01*
X0059860Y0188300D01*
X0057400Y0185840D01*
X0057400Y0184300D01*
X0061400Y0184300D01*
X0061400Y0183900D01*
X0057400Y0183900D01*
X0057400Y0182360D01*
X0059860Y0179900D01*
X0058964Y0180796D02*
X0047481Y0180796D01*
X0047481Y0179598D02*
X0054224Y0179598D01*
X0055026Y0180400D02*
X0052800Y0178174D01*
X0052800Y0175026D01*
X0055026Y0172800D01*
X0058174Y0172800D01*
X0060400Y0175026D01*
X0060400Y0178174D01*
X0058174Y0180400D01*
X0055026Y0180400D01*
X0053025Y0178399D02*
X0047481Y0178399D01*
X0047481Y0177201D02*
X0052800Y0177201D01*
X0052800Y0176002D02*
X0047481Y0176002D01*
X0047481Y0174803D02*
X0053022Y0174803D01*
X0054221Y0173605D02*
X0047481Y0173605D01*
X0047481Y0172406D02*
X0068050Y0172406D01*
X0068050Y0171208D02*
X0047481Y0171208D01*
X0047481Y0170009D02*
X0068050Y0170009D01*
X0068050Y0168811D02*
X0047481Y0168811D01*
X0047481Y0167612D02*
X0068050Y0167612D01*
X0068050Y0166414D02*
X0047481Y0166414D01*
X0047481Y0165215D02*
X0068050Y0165215D01*
X0068050Y0164017D02*
X0047481Y0164017D01*
X0047481Y0162818D02*
X0068050Y0162818D01*
X0068050Y0161620D02*
X0047481Y0161620D01*
X0047481Y0160421D02*
X0068050Y0160421D01*
X0068050Y0159223D02*
X0047481Y0159223D01*
X0047481Y0158024D02*
X0068050Y0158024D01*
X0068050Y0156826D02*
X0047481Y0156826D01*
X0047481Y0155627D02*
X0056910Y0155627D01*
X0057632Y0156350D02*
X0054850Y0153568D01*
X0054850Y0151800D01*
X0059400Y0151800D01*
X0059400Y0156350D01*
X0057632Y0156350D01*
X0059400Y0155627D02*
X0059800Y0155627D01*
X0059800Y0156350D02*
X0059800Y0151800D01*
X0064350Y0151800D01*
X0064350Y0153568D01*
X0061568Y0156350D01*
X0059800Y0156350D01*
X0059800Y0154429D02*
X0059400Y0154429D01*
X0059400Y0153230D02*
X0059800Y0153230D01*
X0059800Y0152032D02*
X0059400Y0152032D01*
X0059400Y0151800D02*
X0059800Y0151800D01*
X0059800Y0151400D01*
X0064350Y0151400D01*
X0064350Y0149632D01*
X0061568Y0146850D01*
X0059800Y0146850D01*
X0059800Y0151400D01*
X0059400Y0151400D01*
X0059400Y0146850D01*
X0057632Y0146850D01*
X0054850Y0149632D01*
X0054850Y0151400D01*
X0059400Y0151400D01*
X0059400Y0151800D01*
X0059400Y0150833D02*
X0059800Y0150833D01*
X0059800Y0149635D02*
X0059400Y0149635D01*
X0059400Y0148436D02*
X0059800Y0148436D01*
X0059800Y0147238D02*
X0059400Y0147238D01*
X0057245Y0147238D02*
X0047481Y0147238D01*
X0047481Y0148436D02*
X0056046Y0148436D01*
X0054850Y0149635D02*
X0047481Y0149635D01*
X0047481Y0150833D02*
X0054850Y0150833D01*
X0054850Y0152032D02*
X0047481Y0152032D01*
X0047481Y0153230D02*
X0054850Y0153230D01*
X0055711Y0154429D02*
X0047481Y0154429D01*
X0047481Y0146039D02*
X0070100Y0146039D01*
X0070100Y0144841D02*
X0047481Y0144841D01*
X0047481Y0143642D02*
X0070100Y0143642D01*
X0070100Y0142444D02*
X0047481Y0142444D01*
X0047481Y0141245D02*
X0070100Y0141245D01*
X0070100Y0140047D02*
X0047481Y0140047D01*
X0047481Y0138848D02*
X0070100Y0138848D01*
X0070100Y0137650D02*
X0047481Y0137650D01*
X0047930Y0136451D02*
X0070100Y0136451D01*
X0070100Y0135253D02*
X0049129Y0135253D01*
X0050327Y0134054D02*
X0070100Y0134054D01*
X0069982Y0132856D02*
X0051526Y0132856D01*
X0052724Y0131657D02*
X0068783Y0131657D01*
X0067800Y0130459D02*
X0053923Y0130459D01*
X0055122Y0129260D02*
X0067800Y0129260D01*
X0067800Y0128062D02*
X0056320Y0128062D01*
X0057519Y0126863D02*
X0068463Y0126863D01*
X0069661Y0125665D02*
X0058717Y0125665D01*
X0059916Y0124466D02*
X0073600Y0124466D01*
X0073600Y0123268D02*
X0061114Y0123268D01*
X0062313Y0122069D02*
X0073109Y0122069D01*
X0073539Y0125665D02*
X0073600Y0125665D01*
X0079200Y0125665D02*
X0088219Y0125665D01*
X0088219Y0124466D02*
X0079200Y0124466D01*
X0079200Y0123268D02*
X0088219Y0123268D01*
X0088219Y0122069D02*
X0079200Y0122069D01*
X0079200Y0120870D02*
X0088770Y0120870D01*
X0088304Y0126863D02*
X0079200Y0126863D01*
X0079200Y0132856D02*
X0088219Y0132856D01*
X0088219Y0134054D02*
X0079200Y0134054D01*
X0079200Y0135253D02*
X0088219Y0135253D01*
X0088219Y0136451D02*
X0079200Y0136451D01*
X0070100Y0147238D02*
X0061955Y0147238D01*
X0063154Y0148436D02*
X0068915Y0148436D01*
X0068050Y0149635D02*
X0064350Y0149635D01*
X0064350Y0150833D02*
X0068050Y0150833D01*
X0068050Y0152032D02*
X0064350Y0152032D01*
X0064350Y0153230D02*
X0068050Y0153230D01*
X0068050Y0154429D02*
X0063489Y0154429D01*
X0062290Y0155627D02*
X0068050Y0155627D01*
X0071050Y0155627D02*
X0071956Y0155627D01*
X0071050Y0159223D02*
X0142600Y0159223D01*
X0142600Y0160421D02*
X0071050Y0160421D01*
X0064221Y0173605D02*
X0058979Y0173605D01*
X0060177Y0174803D02*
X0063022Y0174803D01*
X0062800Y0176002D02*
X0060400Y0176002D01*
X0060400Y0177201D02*
X0062800Y0177201D01*
X0063025Y0178399D02*
X0060175Y0178399D01*
X0061800Y0179900D02*
X0063340Y0179900D01*
X0065800Y0182360D01*
X0065800Y0183900D01*
X0061800Y0183900D01*
X0061800Y0179900D01*
X0061800Y0180796D02*
X0061400Y0180796D01*
X0061400Y0181995D02*
X0061800Y0181995D01*
X0061800Y0183193D02*
X0061400Y0183193D01*
X0061400Y0184392D02*
X0061800Y0184392D01*
X0061800Y0185590D02*
X0061400Y0185590D01*
X0061400Y0186789D02*
X0061800Y0186789D01*
X0061800Y0187987D02*
X0061400Y0187987D01*
X0059547Y0187987D02*
X0044834Y0187987D01*
X0043636Y0189186D02*
X0090199Y0189186D01*
X0089800Y0187987D02*
X0063653Y0187987D01*
X0064851Y0186789D02*
X0088229Y0186789D01*
X0088219Y0185590D02*
X0065800Y0185590D01*
X0065800Y0184392D02*
X0088219Y0184392D01*
X0088219Y0183193D02*
X0065800Y0183193D01*
X0065434Y0181995D02*
X0088219Y0181995D01*
X0091398Y0190384D02*
X0042481Y0190384D01*
X0042481Y0191583D02*
X0088219Y0191583D01*
X0088219Y0192781D02*
X0042481Y0192781D01*
X0042481Y0193980D02*
X0088219Y0193980D01*
X0089281Y0196419D02*
X0091600Y0194100D01*
X0089281Y0196419D02*
X0036600Y0196419D01*
X0032481Y0192300D01*
X0032481Y0178922D01*
X0029100Y0175541D01*
X0029100Y0171600D01*
X0046033Y0186789D02*
X0058349Y0186789D01*
X0057400Y0185590D02*
X0047231Y0185590D01*
X0048100Y0184392D02*
X0057400Y0184392D01*
X0057400Y0183193D02*
X0047814Y0183193D01*
X0047481Y0181995D02*
X0057766Y0181995D01*
X0086419Y0205965D02*
X0026200Y0205965D01*
X0026200Y0207163D02*
X0086419Y0207163D01*
X0087257Y0208362D02*
X0026200Y0208362D01*
X0026200Y0204766D02*
X0026207Y0204766D01*
X0032202Y0141245D02*
X0032700Y0141245D01*
X0033802Y0140047D02*
X0030491Y0140047D01*
X0034892Y0119672D02*
X0057073Y0119672D01*
X0058271Y0118473D02*
X0035695Y0118473D01*
X0036100Y0117275D02*
X0059470Y0117275D01*
X0060668Y0116076D02*
X0036100Y0116076D01*
X0035757Y0114878D02*
X0061867Y0114878D01*
X0063065Y0113679D02*
X0035043Y0113679D01*
X0063511Y0120870D02*
X0070151Y0120870D01*
X0068308Y0119672D02*
X0064710Y0119672D01*
X0065908Y0118473D02*
X0067505Y0118473D01*
X0094804Y0141245D02*
X0139124Y0141245D01*
X0140322Y0142444D02*
X0094981Y0142444D01*
X0094981Y0143642D02*
X0142600Y0143642D01*
X0142600Y0144841D02*
X0094981Y0144841D01*
X0094981Y0146039D02*
X0142600Y0146039D01*
X0128600Y0089709D02*
X0128100Y0089709D01*
X0128100Y0088511D02*
X0128600Y0088511D01*
X0128600Y0087312D02*
X0128100Y0087312D01*
X0128100Y0086114D02*
X0128600Y0086114D01*
X0109857Y0064540D02*
X0109394Y0064540D01*
X0127572Y0060300D02*
X0128174Y0060300D01*
X0128919Y0061045D01*
X0129320Y0060077D01*
X0130077Y0059320D01*
X0130609Y0059100D01*
X0130077Y0058880D01*
X0129320Y0058123D01*
X0128911Y0057135D01*
X0128911Y0056065D01*
X0129320Y0055077D01*
X0130077Y0054320D01*
X0131065Y0053911D01*
X0132135Y0053911D01*
X0133123Y0054320D01*
X0133620Y0054817D01*
X0135000Y0053437D01*
X0135000Y0032277D01*
X0139796Y0027481D01*
X0138922Y0027481D01*
X0138219Y0026778D01*
X0138219Y0021422D01*
X0138441Y0021200D01*
X0134759Y0021200D01*
X0134981Y0021422D01*
X0134981Y0026778D01*
X0134278Y0027481D01*
X0130482Y0027481D01*
X0126381Y0031582D01*
X0126381Y0040762D01*
X0123200Y0043943D01*
X0123200Y0047126D01*
X0125026Y0045300D01*
X0128174Y0045300D01*
X0130400Y0047526D01*
X0130400Y0050674D01*
X0128174Y0052900D01*
X0128100Y0052900D01*
X0128100Y0059772D01*
X0127572Y0060300D01*
X0128100Y0059746D02*
X0129651Y0059746D01*
X0129745Y0058548D02*
X0128100Y0058548D01*
X0128100Y0057349D02*
X0129000Y0057349D01*
X0128911Y0056151D02*
X0128100Y0056151D01*
X0128100Y0054952D02*
X0129445Y0054952D01*
X0128100Y0053754D02*
X0134683Y0053754D01*
X0135000Y0052555D02*
X0128519Y0052555D01*
X0129717Y0051357D02*
X0135000Y0051357D01*
X0135000Y0050158D02*
X0130400Y0050158D01*
X0130400Y0048960D02*
X0135000Y0048960D01*
X0135000Y0047761D02*
X0130400Y0047761D01*
X0129437Y0046563D02*
X0135000Y0046563D01*
X0135000Y0045364D02*
X0128238Y0045364D01*
X0124962Y0045364D02*
X0123200Y0045364D01*
X0123200Y0044166D02*
X0135000Y0044166D01*
X0135000Y0042967D02*
X0124175Y0042967D01*
X0125374Y0041769D02*
X0129978Y0041769D01*
X0129685Y0041647D02*
X0128734Y0040696D01*
X0128219Y0039454D01*
X0128219Y0033746D01*
X0128734Y0032504D01*
X0129685Y0031553D01*
X0130927Y0031038D01*
X0132273Y0031038D01*
X0133515Y0031553D01*
X0134466Y0032504D01*
X0134981Y0033746D01*
X0134981Y0039454D01*
X0134466Y0040696D01*
X0133515Y0041647D01*
X0132273Y0042162D01*
X0130927Y0042162D01*
X0129685Y0041647D01*
X0128681Y0040570D02*
X0126381Y0040570D01*
X0126381Y0039372D02*
X0128219Y0039372D01*
X0128219Y0038173D02*
X0126381Y0038173D01*
X0126381Y0036975D02*
X0128219Y0036975D01*
X0128219Y0035776D02*
X0126381Y0035776D01*
X0126381Y0034578D02*
X0128219Y0034578D01*
X0128371Y0033379D02*
X0126381Y0033379D01*
X0126381Y0032181D02*
X0129057Y0032181D01*
X0126981Y0030982D02*
X0136295Y0030982D01*
X0135097Y0032181D02*
X0134143Y0032181D01*
X0134829Y0033379D02*
X0135000Y0033379D01*
X0134981Y0034578D02*
X0135000Y0034578D01*
X0134981Y0035776D02*
X0135000Y0035776D01*
X0134981Y0036975D02*
X0135000Y0036975D01*
X0134981Y0038173D02*
X0135000Y0038173D01*
X0134981Y0039372D02*
X0135000Y0039372D01*
X0135000Y0040570D02*
X0134519Y0040570D01*
X0135000Y0041769D02*
X0133222Y0041769D01*
X0123763Y0046563D02*
X0123200Y0046563D01*
X0120000Y0042967D02*
X0040230Y0042967D01*
X0039978Y0041769D02*
X0039031Y0041769D01*
X0038681Y0040570D02*
X0037833Y0040570D01*
X0038219Y0039372D02*
X0036634Y0039372D01*
X0035436Y0038173D02*
X0038219Y0038173D01*
X0038219Y0036975D02*
X0034981Y0036975D01*
X0034981Y0035776D02*
X0038219Y0035776D01*
X0038219Y0034578D02*
X0034981Y0034578D01*
X0034829Y0033379D02*
X0038371Y0033379D01*
X0039057Y0032181D02*
X0034143Y0032181D01*
X0039600Y0030982D02*
X0026200Y0030982D01*
X0026200Y0029784D02*
X0039600Y0029784D01*
X0039600Y0028585D02*
X0026200Y0028585D01*
X0026200Y0027387D02*
X0038827Y0027387D01*
X0038219Y0026188D02*
X0026200Y0026188D01*
X0026200Y0024990D02*
X0038219Y0024990D01*
X0038219Y0023791D02*
X0026200Y0023791D01*
X0026200Y0022593D02*
X0038219Y0022593D01*
X0038247Y0021394D02*
X0026200Y0021394D01*
X0026200Y0032181D02*
X0029057Y0032181D01*
X0028371Y0033379D02*
X0026200Y0033379D01*
X0026200Y0034578D02*
X0028219Y0034578D01*
X0028219Y0035776D02*
X0026200Y0035776D01*
X0026200Y0036975D02*
X0028219Y0036975D01*
X0028219Y0038173D02*
X0026200Y0038173D01*
X0026200Y0039372D02*
X0028219Y0039372D01*
X0028681Y0040570D02*
X0026200Y0040570D01*
X0026200Y0041769D02*
X0029978Y0041769D01*
X0033222Y0041769D02*
X0034506Y0041769D01*
X0035705Y0042967D02*
X0026200Y0042967D01*
X0026200Y0044166D02*
X0036903Y0044166D01*
X0043222Y0041769D02*
X0049978Y0041769D01*
X0048681Y0040570D02*
X0044519Y0040570D01*
X0044981Y0039372D02*
X0048219Y0039372D01*
X0048219Y0038173D02*
X0044981Y0038173D01*
X0044981Y0036975D02*
X0048219Y0036975D01*
X0048219Y0035776D02*
X0044981Y0035776D01*
X0044981Y0034578D02*
X0048219Y0034578D01*
X0048371Y0033379D02*
X0044829Y0033379D01*
X0044143Y0032181D02*
X0049057Y0032181D01*
X0049600Y0030982D02*
X0043600Y0030982D01*
X0043600Y0029784D02*
X0049600Y0029784D01*
X0049600Y0028585D02*
X0043600Y0028585D01*
X0044373Y0027387D02*
X0048827Y0027387D01*
X0048219Y0026188D02*
X0044981Y0026188D01*
X0044981Y0024990D02*
X0048219Y0024990D01*
X0048219Y0023791D02*
X0044981Y0023791D01*
X0044981Y0022593D02*
X0048219Y0022593D01*
X0048247Y0021394D02*
X0044953Y0021394D01*
X0054953Y0021394D02*
X0058247Y0021394D01*
X0058219Y0022593D02*
X0054981Y0022593D01*
X0054981Y0023791D02*
X0058219Y0023791D01*
X0058219Y0024990D02*
X0054981Y0024990D01*
X0054981Y0026188D02*
X0058219Y0026188D01*
X0058827Y0027387D02*
X0054373Y0027387D01*
X0053600Y0028585D02*
X0059600Y0028585D01*
X0059600Y0029784D02*
X0053600Y0029784D01*
X0053600Y0030982D02*
X0059600Y0030982D01*
X0059057Y0032181D02*
X0054143Y0032181D01*
X0054829Y0033379D02*
X0058371Y0033379D01*
X0058219Y0034578D02*
X0054981Y0034578D01*
X0054981Y0035776D02*
X0058219Y0035776D01*
X0058219Y0036975D02*
X0054981Y0036975D01*
X0054981Y0038173D02*
X0058219Y0038173D01*
X0058219Y0039372D02*
X0054981Y0039372D01*
X0054519Y0040570D02*
X0058681Y0040570D01*
X0059978Y0041769D02*
X0053222Y0041769D01*
X0027489Y0078923D02*
X0026200Y0078923D01*
X0026200Y0080121D02*
X0026928Y0080121D01*
X0074069Y0092106D02*
X0074619Y0092106D01*
X0103222Y0041769D02*
X0109978Y0041769D01*
X0108681Y0040570D02*
X0104519Y0040570D01*
X0104981Y0039372D02*
X0108219Y0039372D01*
X0108219Y0038173D02*
X0104981Y0038173D01*
X0104981Y0036975D02*
X0108219Y0036975D01*
X0108219Y0035776D02*
X0104981Y0035776D01*
X0104981Y0034578D02*
X0108219Y0034578D01*
X0108371Y0033379D02*
X0104829Y0033379D01*
X0104143Y0032181D02*
X0109057Y0032181D01*
X0109600Y0030982D02*
X0103600Y0030982D01*
X0103600Y0029784D02*
X0109600Y0029784D01*
X0109600Y0028585D02*
X0103600Y0028585D01*
X0104373Y0027387D02*
X0108827Y0027387D01*
X0108219Y0026188D02*
X0104981Y0026188D01*
X0104981Y0024990D02*
X0108219Y0024990D01*
X0108219Y0023791D02*
X0104981Y0023791D01*
X0104981Y0022593D02*
X0108219Y0022593D01*
X0108247Y0021394D02*
X0104953Y0021394D01*
X0113600Y0028585D02*
X0119600Y0028585D01*
X0119600Y0029784D02*
X0113600Y0029784D01*
X0113600Y0030982D02*
X0119600Y0030982D01*
X0119057Y0032181D02*
X0114143Y0032181D01*
X0114829Y0033379D02*
X0118371Y0033379D01*
X0118219Y0034578D02*
X0114981Y0034578D01*
X0114981Y0035776D02*
X0118219Y0035776D01*
X0118219Y0036975D02*
X0114981Y0036975D01*
X0114981Y0038173D02*
X0118219Y0038173D01*
X0118219Y0039372D02*
X0114981Y0039372D01*
X0114519Y0040570D02*
X0118681Y0040570D01*
X0119978Y0041769D02*
X0113222Y0041769D01*
X0114373Y0027387D02*
X0118827Y0027387D01*
X0118219Y0026188D02*
X0114981Y0026188D01*
X0114981Y0024990D02*
X0118219Y0024990D01*
X0118219Y0023791D02*
X0114981Y0023791D01*
X0114981Y0022593D02*
X0118219Y0022593D01*
X0118247Y0021394D02*
X0114953Y0021394D01*
X0128179Y0029784D02*
X0137494Y0029784D01*
X0138692Y0028585D02*
X0129378Y0028585D01*
X0134373Y0027387D02*
X0138827Y0027387D01*
X0138219Y0026188D02*
X0134981Y0026188D01*
X0134981Y0024990D02*
X0138219Y0024990D01*
X0138219Y0023791D02*
X0134981Y0023791D01*
X0134981Y0022593D02*
X0138219Y0022593D01*
X0138247Y0021394D02*
X0134953Y0021394D01*
X0128961Y0060945D02*
X0128819Y0060945D01*
D20*
X0131600Y0061600D03*
X0131600Y0056600D03*
X0132850Y0046600D03*
X0142850Y0046600D03*
X0111600Y0066600D03*
X0116600Y0081600D03*
X0079100Y0074100D03*
X0046600Y0086600D03*
X0041600Y0116600D03*
X0041600Y0126600D03*
X0084100Y0124100D03*
X0084100Y0144100D03*
X0126600Y0141600D03*
X0139100Y0136600D03*
X0146600Y0131600D03*
X0161600Y0116600D03*
X0166600Y0116600D03*
X0191600Y0121600D03*
X0186600Y0089100D03*
X0196600Y0089100D03*
X0196600Y0084100D03*
X0186491Y0056709D03*
X0126600Y0127850D03*
X0151600Y0161600D03*
X0191600Y0199100D03*
X0196600Y0199100D03*
X0201600Y0179100D03*
X0081600Y0191600D03*
X0071600Y0191600D03*
X0061600Y0191600D03*
X0051600Y0191600D03*
X0051600Y0206600D03*
X0061600Y0206600D03*
X0071600Y0206600D03*
X0081600Y0206600D03*
X0034100Y0206600D03*
D21*
X0039100Y0191600D02*
X0046600Y0184100D01*
X0045981Y0183481D01*
X0045981Y0136279D01*
X0069860Y0112400D01*
X0074550Y0112400D01*
X0079100Y0107850D01*
X0079100Y0100638D01*
X0078519Y0100057D01*
X0078519Y0093143D01*
X0086600Y0085062D01*
X0086600Y0081600D01*
X0083100Y0080150D02*
X0083100Y0086864D01*
X0077319Y0092646D01*
X0077319Y0100554D01*
X0077850Y0101086D01*
X0077850Y0107403D01*
X0074053Y0111200D01*
X0069363Y0111200D01*
X0040463Y0140100D01*
X0037567Y0140100D01*
X0035400Y0142267D01*
X0035400Y0173535D01*
X0039100Y0177235D01*
X0039100Y0181600D01*
X0029100Y0181600D02*
X0029100Y0177662D01*
X0026019Y0174581D01*
X0026019Y0169046D01*
X0030384Y0164681D01*
X0031654Y0164681D01*
X0034200Y0162135D01*
X0034200Y0141770D01*
X0037070Y0138900D01*
X0039300Y0138900D01*
X0041600Y0136600D01*
X0042266Y0136600D01*
X0068866Y0110000D01*
X0073556Y0110000D01*
X0076650Y0106906D01*
X0076650Y0101583D01*
X0076119Y0101052D01*
X0076119Y0092148D01*
X0081600Y0086667D01*
X0081600Y0079100D01*
X0085350Y0075350D01*
X0085350Y0067800D01*
X0083100Y0065550D01*
X0083100Y0062650D01*
X0086600Y0059150D01*
X0086600Y0049100D01*
X0086600Y0064100D02*
X0086600Y0076650D01*
X0083100Y0080150D01*
X0111600Y0096600D02*
X0123100Y0085100D01*
X0123100Y0062650D01*
X0126600Y0059150D01*
X0126600Y0049100D01*
X0126600Y0064100D02*
X0126600Y0076650D01*
X0130100Y0080150D01*
X0130100Y0095100D01*
X0131600Y0096600D01*
X0126600Y0091600D02*
X0121600Y0096600D01*
X0126600Y0091600D02*
X0126600Y0081600D01*
X0161600Y0116600D02*
X0148989Y0129211D01*
X0145610Y0129211D01*
X0140610Y0134211D01*
X0138110Y0134211D01*
X0136711Y0135610D01*
X0136711Y0137590D01*
X0138110Y0138989D01*
X0138989Y0138989D01*
X0141600Y0141600D01*
X0144100Y0141600D01*
X0144100Y0174100D01*
X0161600Y0191600D01*
X0161600Y0181600D02*
X0161600Y0179150D01*
X0155500Y0173050D01*
X0155500Y0173000D01*
X0155300Y0172800D01*
X0146103Y0172800D01*
X0145350Y0172047D01*
X0145350Y0139100D01*
X0141600Y0139100D01*
X0139100Y0136600D01*
X0146600Y0131600D02*
X0146600Y0171600D01*
X0161600Y0171600D01*
X0161600Y0161600D02*
X0167700Y0155500D01*
X0167700Y0150150D01*
X0165650Y0148100D01*
X0160550Y0148100D01*
X0155500Y0143050D01*
X0155500Y0140150D01*
X0161600Y0134050D01*
X0161600Y0131600D01*
X0161600Y0141600D02*
X0176600Y0156600D01*
X0176600Y0181600D01*
X0184050Y0181600D01*
X0187550Y0185100D01*
X0200600Y0185100D01*
X0211600Y0174100D01*
X0211600Y0164100D02*
X0209100Y0164100D01*
X0191600Y0181600D01*
X0071600Y0147872D02*
X0071600Y0129100D01*
X0071600Y0147872D02*
X0069550Y0149922D01*
X0069550Y0173650D01*
X0066600Y0176600D01*
D22*
X0091600Y0096600D02*
X0101600Y0086600D01*
X0111600Y0086600D01*
X0116600Y0081600D01*
X0121600Y0084762D02*
X0115124Y0091238D01*
X0110282Y0091238D01*
X0104920Y0096600D01*
X0101600Y0096600D01*
X0121600Y0084762D02*
X0121600Y0043280D01*
X0124781Y0040099D01*
X0124781Y0030919D01*
X0131600Y0024100D01*
X0136600Y0032940D02*
X0140590Y0028950D01*
X0161600Y0028950D01*
X0161600Y0024100D01*
X0169100Y0030350D02*
X0171600Y0027850D01*
X0171600Y0024100D01*
X0169100Y0030350D02*
X0141170Y0030350D01*
X0138419Y0033101D01*
X0138419Y0054781D01*
X0131600Y0061600D01*
X0131600Y0056600D02*
X0134100Y0056600D01*
X0136600Y0054100D01*
X0136600Y0032940D01*
X0111600Y0066600D02*
X0109191Y0066600D01*
X0088091Y0045500D01*
X0040500Y0045500D01*
X0031600Y0036600D01*
D23*
X0041600Y0036600D02*
X0041600Y0024100D01*
X0051600Y0024100D02*
X0051600Y0036600D01*
X0061600Y0036600D02*
X0061600Y0024100D01*
X0071600Y0024100D02*
X0071600Y0036600D01*
X0081600Y0036600D02*
X0081600Y0024100D01*
X0091600Y0024100D02*
X0091600Y0036600D01*
X0101600Y0036600D02*
X0101600Y0024100D01*
X0111600Y0024100D02*
X0111600Y0036600D01*
X0121600Y0036600D02*
X0121600Y0024100D01*
M02*
