%
M48
M72
T01C0.01378
T02C0.02362
T03C0.03200
T04C0.03600
T05C0.04400
%
T01
X79100Y74100
X111600Y66600
X116600Y81600
X131600Y61600
X131600Y56600
X132850Y46600
X142850Y46600
X186491Y56709
X196600Y84100
X196600Y89100
X186600Y89100
X166600Y116600
X161600Y116600
X146600Y131600
X139100Y136600
X126600Y141600
X126600Y127850
X151600Y161600
X191600Y199100
X196600Y199100
X201600Y179100
X191600Y121600
X84100Y124100
X84100Y144100
X41600Y126600
X41600Y116600
X46600Y86600
X51600Y191600
X61600Y191600
X71600Y191600
X81600Y191600
X81600Y206600
X71600Y206600
X61600Y206600
X51600Y206600
X34100Y206600
T02
X31600Y36600
X41600Y36600
X51600Y36600
X61600Y36600
X71600Y36600
X81600Y36600
X91600Y36600
X101600Y36600
X111600Y36600
X121600Y36600
X131600Y36600
X141600Y36600
X151600Y36600
X161600Y36600
X171600Y36600
X171600Y24100
X161600Y24100
X151600Y24100
X141600Y24100
X131600Y24100
X121600Y24100
X111600Y24100
X101600Y24100
X91600Y24100
X81600Y24100
X71600Y24100
X61600Y24100
X51600Y24100
X41600Y24100
X41600Y96600
X51600Y96600
X61600Y96600
X71600Y96600
X81600Y96600
X91600Y96600
X101600Y96600
X111600Y96600
X121600Y96600
X131600Y96600
X141600Y96600
X151600Y96600
X161600Y96600
X171600Y96600
X211600Y114100
X211600Y124100
X211600Y134100
X211600Y144100
X211600Y154100
X211600Y164100
X211600Y174100
X211600Y184100
X211600Y194100
X211600Y204100
X91600Y204100
X91600Y194100
X91600Y184100
X91600Y174100
X91600Y164100
X91600Y154100
X91600Y144100
X91600Y134100
X91600Y124100
X91600Y114100
X39100Y161600
X39100Y171600
X39100Y181600
X39100Y191600
X39100Y201600
X29100Y201600
X29100Y191600
X29100Y181600
X29100Y171600
X29100Y161600
X31600Y96600
X181600Y24100
X191600Y24100
X201600Y24100
X211600Y24100
T03
X126600Y49100
X126600Y64100
X126600Y81600
X86600Y81600
X86600Y64100
X71600Y64100
X71600Y49100
X86600Y49100
X31600Y49100
X31600Y64100
X31600Y129100
X59600Y151600
X73600Y151600
X71600Y129100
X66600Y176600
X61600Y184100
X56600Y176600
X161600Y171600
X161600Y181600
X161600Y191600
X191600Y191600
X191600Y181600
X191600Y171600
X191600Y161600
X191600Y151600
X191600Y141600
X191600Y131600
X161600Y131600
X161600Y141600
X161600Y151600
X161600Y161600
T04
X206600Y96600
X206600Y86600
X39100Y146600
X29100Y146600
T05
X31600Y116600
X31600Y81600
X71600Y81600
X71600Y116600
M30
