G75*
%MOIN*%
%OFA0B0*%
%FSLAX25Y25*%
%IPPOS*%
%LPD*%
%AMOC8*
5,1,8,0,0,1.08239X$1,22.5*
%
%ADD10C,0.00000*%
%ADD11C,0.00600*%
%ADD12C,0.00500*%
D10*
X0021600Y0016600D02*
X0021600Y0213450D01*
X0218450Y0213450D01*
X0218450Y0016600D01*
X0021600Y0016600D01*
D11*
X0165100Y0126600D02*
X0188100Y0126600D01*
X0188100Y0196600D01*
X0180600Y0196600D01*
X0180598Y0196474D01*
X0180592Y0196349D01*
X0180582Y0196224D01*
X0180568Y0196099D01*
X0180551Y0195974D01*
X0180529Y0195850D01*
X0180504Y0195727D01*
X0180474Y0195605D01*
X0180441Y0195484D01*
X0180404Y0195364D01*
X0180364Y0195245D01*
X0180319Y0195128D01*
X0180271Y0195011D01*
X0180219Y0194897D01*
X0180164Y0194784D01*
X0180105Y0194673D01*
X0180043Y0194564D01*
X0179977Y0194457D01*
X0179908Y0194352D01*
X0179836Y0194249D01*
X0179761Y0194148D01*
X0179682Y0194050D01*
X0179600Y0193955D01*
X0179516Y0193862D01*
X0179428Y0193772D01*
X0179338Y0193684D01*
X0179245Y0193600D01*
X0179150Y0193518D01*
X0179052Y0193439D01*
X0178951Y0193364D01*
X0178848Y0193292D01*
X0178743Y0193223D01*
X0178636Y0193157D01*
X0178527Y0193095D01*
X0178416Y0193036D01*
X0178303Y0192981D01*
X0178189Y0192929D01*
X0178072Y0192881D01*
X0177955Y0192836D01*
X0177836Y0192796D01*
X0177716Y0192759D01*
X0177595Y0192726D01*
X0177473Y0192696D01*
X0177350Y0192671D01*
X0177226Y0192649D01*
X0177101Y0192632D01*
X0176976Y0192618D01*
X0176851Y0192608D01*
X0176726Y0192602D01*
X0176600Y0192600D01*
X0176474Y0192602D01*
X0176349Y0192608D01*
X0176224Y0192618D01*
X0176099Y0192632D01*
X0175974Y0192649D01*
X0175850Y0192671D01*
X0175727Y0192696D01*
X0175605Y0192726D01*
X0175484Y0192759D01*
X0175364Y0192796D01*
X0175245Y0192836D01*
X0175128Y0192881D01*
X0175011Y0192929D01*
X0174897Y0192981D01*
X0174784Y0193036D01*
X0174673Y0193095D01*
X0174564Y0193157D01*
X0174457Y0193223D01*
X0174352Y0193292D01*
X0174249Y0193364D01*
X0174148Y0193439D01*
X0174050Y0193518D01*
X0173955Y0193600D01*
X0173862Y0193684D01*
X0173772Y0193772D01*
X0173684Y0193862D01*
X0173600Y0193955D01*
X0173518Y0194050D01*
X0173439Y0194148D01*
X0173364Y0194249D01*
X0173292Y0194352D01*
X0173223Y0194457D01*
X0173157Y0194564D01*
X0173095Y0194673D01*
X0173036Y0194784D01*
X0172981Y0194897D01*
X0172929Y0195011D01*
X0172881Y0195128D01*
X0172836Y0195245D01*
X0172796Y0195364D01*
X0172759Y0195484D01*
X0172726Y0195605D01*
X0172696Y0195727D01*
X0172671Y0195850D01*
X0172649Y0195974D01*
X0172632Y0196099D01*
X0172618Y0196224D01*
X0172608Y0196349D01*
X0172602Y0196474D01*
X0172600Y0196600D01*
X0165100Y0196600D01*
X0165100Y0126600D01*
D12*
X0179250Y0198350D02*
X0181750Y0198350D01*
X0180500Y0198350D02*
X0180500Y0202850D01*
X0181750Y0201850D01*
X0183515Y0202850D02*
X0184515Y0202850D01*
X0184575Y0202848D01*
X0184636Y0202843D01*
X0184695Y0202834D01*
X0184754Y0202821D01*
X0184813Y0202805D01*
X0184870Y0202785D01*
X0184925Y0202762D01*
X0184980Y0202735D01*
X0185032Y0202706D01*
X0185083Y0202673D01*
X0185132Y0202637D01*
X0185178Y0202599D01*
X0185222Y0202557D01*
X0185264Y0202513D01*
X0185302Y0202467D01*
X0185338Y0202418D01*
X0185371Y0202367D01*
X0185400Y0202315D01*
X0185427Y0202260D01*
X0185450Y0202205D01*
X0185470Y0202148D01*
X0185486Y0202089D01*
X0185499Y0202030D01*
X0185508Y0201971D01*
X0185513Y0201910D01*
X0185515Y0201850D01*
X0185515Y0199350D01*
X0185513Y0199290D01*
X0185508Y0199229D01*
X0185499Y0199170D01*
X0185486Y0199111D01*
X0185470Y0199052D01*
X0185450Y0198995D01*
X0185427Y0198940D01*
X0185400Y0198885D01*
X0185371Y0198833D01*
X0185338Y0198782D01*
X0185302Y0198733D01*
X0185264Y0198687D01*
X0185222Y0198643D01*
X0185178Y0198601D01*
X0185132Y0198563D01*
X0185083Y0198527D01*
X0185032Y0198494D01*
X0184980Y0198465D01*
X0184925Y0198438D01*
X0184870Y0198415D01*
X0184813Y0198395D01*
X0184754Y0198379D01*
X0184695Y0198366D01*
X0184636Y0198357D01*
X0184575Y0198352D01*
X0184515Y0198350D01*
X0183515Y0198350D01*
X0187350Y0198350D02*
X0188350Y0198350D01*
X0187850Y0198350D02*
X0187850Y0202850D01*
X0188350Y0202850D02*
X0187350Y0202850D01*
M02*
