G75*
%MOIN*%
%OFA0B0*%
%FSLAX25Y25*%
%IPPOS*%
%LPD*%
%AMOC8*
5,1,8,0,0,1.08239X$1,22.5*
%
%ADD10OC8,0.07100*%
%ADD11C,0.07100*%
%ADD12C,0.07400*%
%ADD13C,0.06000*%
%ADD14OC8,0.06000*%
%ADD15R,0.05162X0.05162*%
%ADD16C,0.05162*%
%ADD17C,0.06400*%
%ADD18C,0.03778*%
D10*
X0059600Y0151600D03*
D11*
X0073600Y0151600D03*
D12*
X0071600Y0116600D03*
X0071600Y0081600D03*
X0031600Y0081600D03*
X0031600Y0116600D03*
D13*
X0159000Y0131600D02*
X0164200Y0131600D01*
X0164200Y0141600D02*
X0159000Y0141600D01*
X0159000Y0151600D02*
X0164200Y0151600D01*
X0164200Y0161600D02*
X0159000Y0161600D01*
X0159000Y0171600D02*
X0164200Y0171600D01*
X0164200Y0181600D02*
X0159000Y0181600D01*
X0159000Y0191600D02*
X0164200Y0191600D01*
X0189000Y0191600D02*
X0194200Y0191600D01*
X0194200Y0181600D02*
X0189000Y0181600D01*
X0189000Y0171600D02*
X0194200Y0171600D01*
X0194200Y0161600D02*
X0189000Y0161600D01*
X0189000Y0151600D02*
X0194200Y0151600D01*
X0194200Y0141600D02*
X0189000Y0141600D01*
X0189000Y0131600D02*
X0194200Y0131600D01*
D14*
X0126600Y0081600D03*
X0126600Y0064100D03*
X0126600Y0049100D03*
X0086600Y0049100D03*
X0071600Y0049100D03*
X0071600Y0064100D03*
X0086600Y0064100D03*
X0086600Y0081600D03*
X0071600Y0129100D03*
X0031600Y0129100D03*
X0056600Y0176600D03*
X0061600Y0184100D03*
X0066600Y0176600D03*
X0031600Y0064100D03*
X0031600Y0049100D03*
D15*
X0041600Y0024100D03*
X0051600Y0024100D03*
X0061600Y0024100D03*
X0071600Y0024100D03*
X0081600Y0024100D03*
X0091600Y0024100D03*
X0101600Y0024100D03*
X0111600Y0024100D03*
X0121600Y0024100D03*
X0131600Y0024100D03*
X0141600Y0024100D03*
X0151600Y0024100D03*
X0161600Y0024100D03*
X0171600Y0024100D03*
X0181600Y0024100D03*
X0191600Y0024100D03*
X0201600Y0024100D03*
X0211600Y0024100D03*
X0211600Y0114100D03*
X0211600Y0124100D03*
X0211600Y0134100D03*
X0211600Y0144100D03*
X0211600Y0154100D03*
X0211600Y0164100D03*
X0211600Y0174100D03*
X0211600Y0184100D03*
X0211600Y0194100D03*
X0211600Y0204100D03*
X0091600Y0204100D03*
X0091600Y0194100D03*
X0091600Y0184100D03*
X0091600Y0174100D03*
X0091600Y0164100D03*
X0091600Y0154100D03*
X0091600Y0144100D03*
X0091600Y0134100D03*
X0091600Y0124100D03*
X0091600Y0114100D03*
X0039100Y0161600D03*
X0039100Y0171600D03*
X0039100Y0181600D03*
X0039100Y0191600D03*
X0039100Y0201600D03*
X0029100Y0201600D03*
X0029100Y0191600D03*
X0029100Y0181600D03*
X0029100Y0171600D03*
X0029100Y0161600D03*
D16*
X0031600Y0038781D02*
X0031600Y0034419D01*
X0041600Y0034419D02*
X0041600Y0038781D01*
X0051600Y0038781D02*
X0051600Y0034419D01*
X0061600Y0034419D02*
X0061600Y0038781D01*
X0071600Y0038781D02*
X0071600Y0034419D01*
X0081600Y0034419D02*
X0081600Y0038781D01*
X0091600Y0038781D02*
X0091600Y0034419D01*
X0101600Y0034419D02*
X0101600Y0038781D01*
X0111600Y0038781D02*
X0111600Y0034419D01*
X0121600Y0034419D02*
X0121600Y0038781D01*
X0131600Y0038781D02*
X0131600Y0034419D01*
X0141600Y0034419D02*
X0141600Y0038781D01*
X0151600Y0038781D02*
X0151600Y0034419D01*
X0161600Y0034419D02*
X0161600Y0038781D01*
X0171600Y0038781D02*
X0171600Y0034419D01*
X0171600Y0094419D02*
X0171600Y0098781D01*
X0161600Y0098781D02*
X0161600Y0094419D01*
X0151600Y0094419D02*
X0151600Y0098781D01*
X0141600Y0098781D02*
X0141600Y0094419D01*
X0131600Y0094419D02*
X0131600Y0098781D01*
X0121600Y0098781D02*
X0121600Y0094419D01*
X0111600Y0094419D02*
X0111600Y0098781D01*
X0101600Y0098781D02*
X0101600Y0094419D01*
X0091600Y0094419D02*
X0091600Y0098781D01*
X0081600Y0098781D02*
X0081600Y0094419D01*
X0071600Y0094419D02*
X0071600Y0098781D01*
X0061600Y0098781D02*
X0061600Y0094419D01*
X0051600Y0094419D02*
X0051600Y0098781D01*
X0041600Y0098781D02*
X0041600Y0094419D01*
X0031600Y0094419D02*
X0031600Y0098781D01*
D17*
X0029100Y0143800D02*
X0029100Y0149400D01*
X0039100Y0149400D02*
X0039100Y0143800D01*
X0203800Y0096600D02*
X0209400Y0096600D01*
X0209400Y0086600D02*
X0203800Y0086600D01*
D18*
X0196600Y0084100D03*
X0196600Y0089100D03*
X0186600Y0089100D03*
X0166600Y0116600D03*
X0161600Y0116600D03*
X0146600Y0131600D03*
X0139100Y0136600D03*
X0126600Y0141600D03*
X0126600Y0127850D03*
X0151600Y0161600D03*
X0191600Y0199100D03*
X0196600Y0199100D03*
X0201600Y0179100D03*
X0191600Y0121600D03*
X0131600Y0061600D03*
X0131600Y0056600D03*
X0132850Y0046600D03*
X0142850Y0046600D03*
X0111600Y0066600D03*
X0116600Y0081600D03*
X0079100Y0074100D03*
X0046600Y0086600D03*
X0041600Y0116600D03*
X0041600Y0126600D03*
X0084100Y0124100D03*
X0084100Y0144100D03*
X0081600Y0191600D03*
X0071600Y0191600D03*
X0061600Y0191600D03*
X0051600Y0191600D03*
X0051600Y0206600D03*
X0061600Y0206600D03*
X0071600Y0206600D03*
X0081600Y0206600D03*
X0034100Y0206600D03*
X0186491Y0056709D03*
M02*
